<svg xmlns="http://www.w3.org/2000/svg" xmlns:xlink="http://www.w3.org/1999/xlink" xmlns:lucid="lucid" width="622" height="862.87"><g transform="translate(-539 -159.99995000000024)" lucid:page-tab-id="0_0"><path d="M560 167a6 6 0 0 1 6-6h568a6 6 0 0 1 6 6v308a6 6 0 0 1-6 6H566a6 6 0 0 1-6-6z" fill="#fff"/><path d="M578.17 161h8.12m8.1 0h8.1m8.13 0h8.1m8.13 0h8.1m8.13 0h8.1m8.1 0h8.13m8.1 0h8.13m8.1 0h8.13m8.1 0h8.1m8.13 0h8.1m8.13 0h8.1m8.13 0h8.1m8.1 0h8.13m8.1 0h8.13m8.1 0h8.13m8.1 0h8.1m8.13 0h8.1m8.13 0h8.1m8.13 0h8.1m8.1 0h8.13m8.1 0h8.13m8.1 0h8.13m8.1 0h8.1m8.13 0h8.1m8.13 0h8.1m8.13 0h8.1m8.1 0h8.13m8.1 0h8.13m8.1 0h8.13m8.1 0h8.1m8.13 0h8.1m8.13 0h8.1m8.13 0h8.1m8.1 0h8.13m8.1 0h4.07a6 6 0 0 1 6 6v4.05m0 8.1v8.1m0 8.12v8.1m0 8.1v8.1m0 8.12v8.1m0 8.1v8.1m0 8.1v8.12m0 8.1v8.1m0 8.1v8.12m0 8.1v8.1m0 8.1v8.12m0 8.1v8.1m0 8.1v8.12m0 8.1v8.1m0 8.12v8.1m0 8.1v8.1m0 8.12v8.1m0 8.1v8.1m0 8.12v8.1m0 8.1V475a6 6 0 0 1-6 6h-4.06m-8.1 0h-8.13m-8.1 0h-8.1m-8.13 0h-8.1m-8.13 0h-8.1m-8.13 0h-8.1m-8.1 0h-8.13m-8.1 0h-8.13m-8.1 0h-8.13m-8.1 0h-8.1m-8.13 0h-8.1m-8.13 0h-8.1m-8.13 0h-8.1m-8.1 0h-8.13m-8.1 0h-8.13m-8.1 0h-8.13m-8.1 0h-8.1m-8.13 0h-8.1m-8.13 0h-8.1m-8.13 0h-8.1m-8.1 0h-8.13m-8.1 0h-8.13m-8.1 0h-8.13m-8.1 0h-8.1m-8.13 0h-8.1m-8.13 0h-8.1m-8.13 0H708m-8.1 0h-8.13m-8.1 0h-8.13m-8.1 0h-8.13m-8.1 0h-8.1m-8.13 0h-8.1m-8.13 0h-8.1m-8.13 0h-8.1m-8.1 0h-8.13m-8.1 0H566a6 6 0 0 1-6-6v-4.05m0-8.1v-8.1m0-8.12v-8.1m0-8.1v-8.1m0-8.12v-8.1m0-8.1v-8.1m0-8.1v-8.12m0-8.1v-8.1m0-8.1v-8.12m0-8.1v-8.1m0-8.1v-8.12m0-8.1v-8.1m0-8.1v-8.12m0-8.1v-8.1m0-8.12V244m0-8.1v-8.1m0-8.12v-8.1m0-8.1v-8.1m0-8.12v-8.1m0-8.1V167a6 6 0 0 1 6-6h4.06" stroke="#635dff" stroke-width="2" fill="none"/><use xlink:href="#a" transform="matrix(1,0,0,1,572,172.99995000000024) translate(187.19596354166669 21.52777777777778)"/><use xlink:href="#b" transform="matrix(1,0,0,1,572,172.99995000000024) translate(279.55707465277777 21.52777777777778)"/><path d="M620 247a6 6 0 0 1 6-6h448a6 6 0 0 1 6 6v188a6 6 0 0 1-6 6H626a6 6 0 0 1-6-6z" stroke="#635dff" stroke-width="2" fill="#f2f2ff"/><use xlink:href="#c" transform="matrix(1,0,0,1,632,252.99995000000024) translate(103.30360243055556 21.52777777777778)"/><use xlink:href="#d" transform="matrix(1,0,0,1,632,252.99995000000024) translate(196.45681423611111 21.52777777777778)"/><use xlink:href="#e" transform="matrix(1,0,0,1,632,252.99995000000024) translate(245.25238715277777 21.52777777777778)"/><use xlink:href="#f" transform="matrix(1,0,0,1,632,252.99995000000024) translate(312.0384114583333 21.52777777777778)"/><path d="M640 307a6 6 0 0 1 6-6h148a6 6 0 0 1 6 6v108a6 6 0 0 1-6 6H646a6 6 0 0 1-6-6z" stroke="#ced4db" stroke-width="2" fill="#fff"/><use xlink:href="#g" transform="matrix(1,0,0,1,652,312.99995000000024) translate(28.244140625 43.375)"/><use xlink:href="#h" transform="matrix(1,0,0,1,652,312.99995000000024) translate(87.501953125 43.375)"/><use xlink:href="#i" transform="matrix(1,0,0,1,652,312.99995000000024) translate(6.050130208333329 65.95572916666667)"/><use xlink:href="#j" transform="matrix(1,0,0,1,652,312.99995000000024) translate(79.95638020833333 65.95572916666667)"/><path d="M900 307a6 6 0 0 1 6-6h148a6 6 0 0 1 6 6v108a6 6 0 0 1-6 6H906a6 6 0 0 1-6-6z" stroke="#ced4db" stroke-width="2" fill="#fff"/><use xlink:href="#k" transform="matrix(1,0,0,1,912,312.99995000000024) translate(3.29296875 34.375)"/><use xlink:href="#l" transform="matrix(1,0,0,1,912,312.99995000000024) translate(50.71484375 34.375)"/><use xlink:href="#m" transform="matrix(1,0,0,1,912,312.99995000000024) translate(11.017578125 56.95572916666667)"/><use xlink:href="#n" transform="matrix(1,0,0,1,912,312.99995000000024) translate(40.776692708333336 56.95572916666667)"/><use xlink:href="#o" transform="matrix(1,0,0,1,912,312.99995000000024) translate(71.564453125 56.95572916666667)"/><use xlink:href="#p" transform="matrix(1,0,0,1,912,312.99995000000024) translate(7.21875 76.31510416666667)"/><use xlink:href="#q" transform="matrix(1,0,0,1,912,312.99995000000024) translate(82.42708333333333 76.31510416666667)"/><use xlink:href="#r" transform="matrix(1,0,0,1,912,312.99995000000024) translate(104.953125 76.31510416666667)"/><path d="M801.5 354h81.12" stroke="#635dff" fill="none"/><path d="M801.5 354.48h-.5v-.96h.5z" stroke="#635dff" stroke-width=".05" fill="#635dff"/><path d="M897.38 354l-14.26 4.63v-9.26z" stroke="#635dff" fill="#635dff"/><path d="M898.5 370h-81.12" stroke="#635dff" fill="none"/><path d="M899 370.48h-.5v-.96h.5z" stroke="#635dff" stroke-width=".05" fill="#635dff"/><path d="M802.62 370l14.26-4.63v9.26z" stroke="#635dff" fill="#635dff"/><path d="M770 646a6 6 0 0 1 6-6h148a6 6 0 0 1 6 6v109.87a6 6 0 0 1-6 6H776a6 6 0 0 1-6-6z" stroke="#635dff" stroke-width="2" fill="#fff"/><use xlink:href="#s" transform="matrix(1,0,0,1,782,652) translate(12.476996527777786 27.65277777777778)"/><use xlink:href="#t" transform="matrix(1,0,0,1,782,652) translate(54.219618055555564 27.65277777777778)"/><use xlink:href="#u" transform="matrix(1,0,0,1,782,652) translate(40.44466145833333 51.30729166666667)"/><use xlink:href="#v" transform="matrix(1,0,0,1,782,652) translate(22.74609375 70.66666666666667)"/><use xlink:href="#w" transform="matrix(1,0,0,1,782,652) translate(60.669270833333336 70.66666666666667)"/><use xlink:href="#x" transform="matrix(1,0,0,1,782,652) translate(79.90104166666667 70.66666666666667)"/><use xlink:href="#y" transform="matrix(1,0,0,1,782,652) translate(20.5390625 90.02604166666667)"/><use xlink:href="#z" transform="matrix(1,0,0,1,782,652) translate(78.27994791666666 90.02604166666667)"/><path d="M850.48 622.62h-.96v-71.37h.96zm0-92.88h-.96V442.5h.96z" stroke="#635dff" stroke-width=".05" fill="#635dff"/><path d="M850.48 442.5h-.96v-.5h.96z" fill="#635dff"/><path stroke="#635dff" stroke-width=".05" fill="#635dff"/><path d="M850 637.38l-4.63-14.26h9.26z" fill="#635dff"/><path d="M850 638.92l-5.3-16.28h10.6zm-3.98-15.33l3.98 12.25 3.98-12.26z" stroke="#635dff" stroke-width=".05" fill="#635dff"/><g><use xlink:href="#A" transform="matrix(1,0,0,1,689.0190972222222,529.7447666666666) translate(0 17.22222222222222)"/><use xlink:href="#B" transform="matrix(1,0,0,1,689.0190972222222,529.7447666666666) translate(95.6076388888889 17.22222222222222)"/><use xlink:href="#C" transform="matrix(1,0,0,1,689.0190972222222,529.7447666666666) translate(142.2309027777778 17.22222222222222)"/><use xlink:href="#D" transform="matrix(1,0,0,1,689.0190972222222,529.7447666666666) translate(158.50694444444446 17.22222222222222)"/><use xlink:href="#E" transform="matrix(1,0,0,1,689.0190972222222,529.7447666666666) translate(252.39583333333337 17.22222222222222)"/></g><path d="M850 763.37v119.25" stroke="#635dff" fill="none"/><path d="M850.48 763.4h-.96v-.53h.96z" stroke="#635dff" stroke-width=".05" fill="#635dff"/><path d="M850 897.38l-4.63-14.26h9.26z" stroke="#635dff" fill="#635dff"/><path d="M770 906a6 6 0 0 1 6-6h148a6 6 0 0 1 6 6v109.87a6 6 0 0 1-6 6H776a6 6 0 0 1-6-6z" stroke="#635dff" stroke-width="2" fill="#fff"/><g><use xlink:href="#F" transform="matrix(1,0,0,1,782,912) translate(18.320095486111114 49.09027777777778)"/><use xlink:href="#G" transform="matrix(1,0,0,1,782,912) translate(41.54817708333333 67.3671875)"/></g><path d="M1000 905.06a6 6 0 0 1 6-6h148a6 6 0 0 1 6 6v109.88a6 6 0 0 1-6 6h-148a6 6 0 0 1-6-6z" stroke="#635dff" stroke-width="2" fill="#fff"/><g><use xlink:href="#H" transform="matrix(1,0,0,1,1012,911.0638020833334) translate(8.321180555555571 49.09027777777778)"/><use xlink:href="#I" transform="matrix(1,0,0,1,1012,911.0638020833334) translate(14.546223958333329 67.3671875)"/><use xlink:href="#J" transform="matrix(1,0,0,1,1012,911.0638020833334) translate(46.69466145833333 67.3671875)"/><use xlink:href="#K" transform="matrix(1,0,0,1,1012,911.0638020833334) translate(75.97200520833333 67.3671875)"/></g><path d="M540 905.06a6 6 0 0 1 6-6h148a6 6 0 0 1 6 6v109.88a6 6 0 0 1-6 6H546a6 6 0 0 1-6-6z" stroke="#635dff" stroke-width="2" fill="#fff"/><g><use xlink:href="#L" transform="matrix(1,0,0,1,552,911.0638020833334) translate(10.768012152777779 49.09027777777778)"/><use xlink:href="#M" transform="matrix(1,0,0,1,552,911.0638020833334) translate(15.376302083333336 67.3671875)"/><use xlink:href="#N" transform="matrix(1,0,0,1,552,911.0638020833334) translate(61.30078125 67.3671875)"/></g><path d="M820 763.37v61.1a6 6 0 0 1-6 6H626a6 6 0 0 0-6 6v45.2" stroke="#635dff" fill="none"/><path d="M820.48 763.4h-.96v-.53h.96z" stroke="#635dff" stroke-width=".05" fill="#635dff"/><path d="M620 896.45l-4.63-14.27h9.26z" stroke="#635dff" fill="#635dff"/><path d="M880.67 763.37v61.1a6 6 0 0 0 6 6H1074a6 6 0 0 1 6 6v45.2" stroke="#635dff" fill="none"/><path d="M881.14 763.4h-.95v-.53h.94z" stroke="#635dff" stroke-width=".05" fill="#635dff"/><path d="M1080 896.45l-4.63-14.27h9.27z" stroke="#635dff" fill="#635dff"/><defs><path d="M657 26c-323 0-524-166-541-416h195c15 169 171 246 346 246 202 0 356-106 356-265 5-203-294-238-475-293-239-73-380-191-380-389 0-252 224-419 512-419 294 0 499 171 508 396H992c-17-145-151-228-328-228-193 0-321 102-321 242 0 156 175 211 284 241l149 41c160 44 422 134 422 412 0 244-197 432-541 432" id="O"/><path d="M158 0v-1118h180V0H158zm91-1301c-68 0-125-53-125-119s57-119 125-119c69 0 126 53 126 119s-57 119-126 119" id="P"/><path d="M611 442c-248 0-391-105-460-228l146-94c47 65 117 165 314 165 178 0 307-82 307-266v-224h-17C863-141 792-18 576-18c-268 0-472-195-472-546 0-346 197-568 476-568 216 0 288 133 326 193h17v-179h175V29c0 289-215 413-487 413zm-5-620c203 0 314-146 314-390 0-237-108-403-314-403-213 0-319 180-319 403 0 230 109 390 319 390" id="Q"/><path d="M338-670V0H158v-1118h173l1 207c72-158 192-221 342-221 226 0 378 139 378 422V0H872v-695c0-172-96-275-252-275-161 0-282 109-282 300" id="R"/><path d="M628 24c-324 0-524-230-524-574 0-343 198-582 503-582 237 0 487 146 487 559v75H286c9 234 145 362 343 362 132 0 231-58 273-172l174 48C1024-91 857 24 628 24zM287-650h624c-17-190-120-322-304-322-192 0-309 151-320 322" id="S"/><path d="M158 0v-1118h174v172h12c41-113 157-188 290-188 26 0 70 2 91 3v181c-11-2-60-10-108-10-161 0-279 109-279 260V0H158" id="T"/><path d="M232-923l-22-567h194l-22 567H232" id="U"/><path d="M538 24C308 24 148-78 108-271l171-41c32 123 123 178 257 178 156 0 256-77 256-169 0-77-54-128-164-154l-186-44c-203-48-300-148-300-305 0-192 176-326 414-326 230 0 351 112 402 269l-163 42c-31-80-94-158-238-158-133 0-233 69-233 162 0 83 57 129 188 160l169 40c203 48 298 149 298 302 0 196-179 339-441 339" id="V"/><g id="a"><use transform="matrix(0.010850694444444444,0,0,0.010850694444444444,0,0)" xlink:href="#O"/><use transform="matrix(0.010850694444444444,0,0,0.010850694444444444,14.2578125,0)" xlink:href="#P"/><use transform="matrix(0.010850694444444444,0,0,0.010850694444444444,19.639756944444443,0)" xlink:href="#Q"/><use transform="matrix(0.010850694444444444,0,0,0.010850694444444444,33.268229166666664,0)" xlink:href="#R"/><use transform="matrix(0.010850694444444444,0,0,0.010850694444444444,46.39756944444444,0)" xlink:href="#S"/><use transform="matrix(0.010850694444444444,0,0,0.010850694444444444,59.35329861111111,0)" xlink:href="#T"/><use transform="matrix(0.010850694444444444,0,0,0.010850694444444444,67.71918402777777,0)" xlink:href="#U"/><use transform="matrix(0.010850694444444444,0,0,0.010850694444444444,74.38151041666666,0)" xlink:href="#V"/></g><path d="M158 0v-1118h175l1 205c55-151 181-225 313-225 147 0 245 90 285 228 53-141 190-228 352-228 194 0 352 125 352 384V0h-181v-749c0-161-105-225-225-225-151 0-243 103-243 244V0H807v-767c0-124-93-207-219-207-131 0-250 92-250 270V0H158" id="W"/><path d="M471 26C259 26 90-98 90-318c0-256 228-303 435-329 202-27 287-16 287-108 0-139-79-219-234-219-161 0-248 86-283 164l-173-57c86-203 278-265 451-265 150 0 419 46 419 395V0H815v-152h-12C765-73 660 26 471 26zm31-159c199 0 310-134 310-271v-155c-30 35-226 55-295 64-131 17-246 59-246 186 0 116 97 176 231 176" id="X"/><path d="M613 24c-304 0-509-231-509-576 0-350 205-580 509-580 216 0 392 114 453 309l-173 49c-33-115-133-197-280-197-223 0-326 196-326 419 0 220 103 415 326 415 150 0 252-85 285-206l172 49C1010-95 832 24 613 24" id="Y"/><path d="M338-670V0H158v-1490h180v566c73-149 190-208 336-208 226 0 379 139 379 422V0H872v-695c0-172-96-275-252-275-161 0-282 109-282 300" id="Z"/><g id="b"><use transform="matrix(0.010850694444444444,0,0,0.010850694444444444,0,0)" xlink:href="#W"/><use transform="matrix(0.010850694444444444,0,0,0.010850694444444444,19.466145833333332,0)" xlink:href="#X"/><use transform="matrix(0.010850694444444444,0,0,0.010850694444444444,31.944444444444443,0)" xlink:href="#Y"/><use transform="matrix(0.010850694444444444,0,0,0.010850694444444444,44.63975694444444,0)" xlink:href="#Z"/><use transform="matrix(0.010850694444444444,0,0,0.010850694444444444,57.779947916666664,0)" xlink:href="#P"/><use transform="matrix(0.010850694444444444,0,0,0.010850694444444444,63.16189236111111,0)" xlink:href="#R"/><use transform="matrix(0.010850694444444444,0,0,0.010850694444444444,76.29123263888889,0)" xlink:href="#S"/></g><path d="M645 0H180v-1490h484c435 0 692 280 692 742 0 466-257 748-711 748zM370-168h263c363 0 539-218 539-580 0-358-176-574-521-574H370v1154" id="aa"/><path d="M158 0v-1490h180v865h22l478-493h223L593-638 1096 0H865L456-523 338-412V0H158" id="ab"/><path d="M598-1118v154H368v674c0 100 37 144 132 144 23 0 62-6 92-12L629-6c-37 13-88 20-134 20-193 0-307-107-307-290v-688H20v-154h168v-266h180v266h230" id="ac"/><path d="M613 24c-304 0-509-231-509-576 0-350 205-580 509-580 305 0 511 230 511 580 0 345-206 576-511 576zm0-161c226 0 329-195 329-415 0-222-103-419-329-419-223 0-326 196-326 419 0 220 103 415 326 415" id="ad"/><path d="M158 418v-1536h174v179h20c37-59 106-193 324-193 279 0 474 222 474 576 0 356-194 580-473 580-213 0-288-135-325-197h-14v591H158zm492-555c209 0 317-186 317-421 0-232-105-413-317-413-206 0-314 166-314 413 0 249 111 421 314 421" id="ae"/><g id="c"><use transform="matrix(0.010850694444444444,0,0,0.010850694444444444,0,0)" xlink:href="#aa"/><use transform="matrix(0.010850694444444444,0,0,0.010850694444444444,16.03732638888889,0)" xlink:href="#S"/><use transform="matrix(0.010850694444444444,0,0,0.010850694444444444,28.99305555555556,0)" xlink:href="#V"/><use transform="matrix(0.010850694444444444,0,0,0.010850694444444444,40.72265625,0)" xlink:href="#ab"/><use transform="matrix(0.010850694444444444,0,0,0.010850694444444444,52.91883680555556,0)" xlink:href="#ac"/><use transform="matrix(0.010850694444444444,0,0,0.010850694444444444,59.97178819444445,0)" xlink:href="#ad"/><use transform="matrix(0.010850694444444444,0,0,0.010850694444444444,73.29644097222223,0)" xlink:href="#ae"/></g><path d="M52 0l541-1490h220L1361 0h-200l-149-416H398L254 0H52zm404-582h497c-103-290-145-390-251-756-108 377-145 460-246 756" id="af"/><g id="d"><use transform="matrix(0.010850694444444444,0,0,0.010850694444444444,0,0)" xlink:href="#af"/><use transform="matrix(0.010850694444444444,0,0,0.010850694444444444,15.33203125,0)" xlink:href="#ae"/><use transform="matrix(0.010850694444444444,0,0,0.010850694444444444,28.938802083333332,0)" xlink:href="#ae"/></g><path d="M218-607c0-325 108-727 258-974h175c-155 315-250 682-250 974 0 265 78 531 250 886H476C306-10 218-315 218-607" id="ag"/><path d="M98-1322v-168h1126v168H757V0H567v-1322H98" id="ah"/><path d="M537 14c-226 0-379-139-379-422v-710h180v695c0 172 97 275 253 275 160 0 281-109 281-300v-670h181V0H879v-209C806-46 684 14 537 14" id="ai"/><g id="e"><use transform="matrix(0.010850694444444444,0,0,0.010850694444444444,0,0)" xlink:href="#ag"/><use transform="matrix(0.010850694444444444,0,0,0.010850694444444444,8.10546875,0)" xlink:href="#ah"/><use transform="matrix(0.010850694444444444,0,0,0.010850694444444444,20.82248263888889,0)" xlink:href="#X"/><use transform="matrix(0.010850694444444444,0,0,0.010850694444444444,33.30078125,0)" xlink:href="#ai"/><use transform="matrix(0.010850694444444444,0,0,0.010850694444444444,46.44097222222222,0)" xlink:href="#T"/><use transform="matrix(0.010850694444444444,0,0,0.010850694444444444,55.15407986111111,0)" xlink:href="#P"/></g><path d="M154 0v-137l495-537c165-179 249-281 249-418 0-156-121-253-280-253-170 0-278 110-278 278H158c0-264 200-443 465-443 266 0 455 183 455 416 0 161-73 288-336 568L416-179v12h687V0H154" id="aj"/><path d="M96 279C273-86 346-350 346-607c0-292-95-659-250-974h175c150 246 258 650 258 974 0 297-91 602-258 886H96" id="ak"/><g id="f"><use transform="matrix(0.010850694444444444,0,0,0.010850694444444444,0,0)" xlink:href="#aj"/><use transform="matrix(0.010850694444444444,0,0,0.010850694444444444,13.55251736111111,0)" xlink:href="#ak"/></g><path d="M180 0v-1490h510c348 0 508 194 508 460 0 198-88 351-276 417L1256 0h-220L726-579c-117 2-238 0-356 1V0H180zm190-747h312c235 0 327-108 327-283 0-177-92-293-329-293H370v576" id="al"/><g id="g"><use transform="matrix(0.009765625,0,0,0.009765625,0,0)" xlink:href="#al"/><use transform="matrix(0.009765625,0,0,0.009765625,12.578125,0)" xlink:href="#S"/><use transform="matrix(0.009765625,0,0,0.009765625,24.43359375,0)" xlink:href="#X"/><use transform="matrix(0.009765625,0,0,0.009765625,35.6640625,0)" xlink:href="#Y"/><use transform="matrix(0.009765625,0,0,0.009765625,47.08984375,0)" xlink:href="#ac"/></g><path d="M763 24c-353 0-583-224-583-531v-983h190v968c0 214 149 370 393 370 243 0 391-156 391-370v-968h190v983c0 307-230 531-581 531" id="am"/><path d="M370-1490V0H180v-1490h190" id="an"/><g id="h"><use transform="matrix(0.009765625,0,0,0.009765625,0,0)" xlink:href="#am"/><use transform="matrix(0.009765625,0,0,0.009765625,14.8828125,0)" xlink:href="#an"/></g><path fill="#4c535d" d="M180 0v-1490h510c348 0 508 209 508 474 0 266-160 477-507 477H370V0H180zm190-706h312c236 0 327-133 327-310 0-176-91-307-329-307H370v617" id="ao"/><path fill="#4c535d" d="M338-1490V0H158v-1490h180" id="ap"/><path fill="#4c535d" d="M471 26C259 26 90-98 90-318c0-256 228-303 435-329 202-27 287-16 287-108 0-139-79-219-234-219-161 0-248 86-283 164l-173-57c86-203 278-265 451-265 150 0 419 46 419 395V0H815v-152h-12C765-73 660 26 471 26zm31-159c199 0 310-134 310-271v-155c-30 35-226 55-295 64-131 17-246 59-246 186 0 116 97 176 231 176" id="aq"/><path fill="#4c535d" d="M613 24c-304 0-509-231-509-576 0-350 205-580 509-580 216 0 392 114 453 309l-173 49c-33-115-133-197-280-197-223 0-326 196-326 419 0 220 103 415 326 415 150 0 252-85 285-206l172 49C1010-95 832 24 613 24" id="ar"/><path fill="#4c535d" d="M628 24c-324 0-524-230-524-574 0-343 198-582 503-582 237 0 487 146 487 559v75H286c9 234 145 362 343 362 132 0 231-58 273-172l174 48C1024-91 857 24 628 24zM287-650h624c-17-190-120-322-304-322-192 0-309 151-320 322" id="as"/><path fill="#4c535d" d="M158 0v-1118h175l1 205c55-151 181-225 313-225 147 0 245 90 285 228 53-141 190-228 352-228 194 0 352 125 352 384V0h-181v-749c0-161-105-225-225-225-151 0-243 103-243 244V0H807v-767c0-124-93-207-219-207-131 0-250 92-250 270V0H158" id="at"/><path fill="#4c535d" d="M338-670V0H158v-1118h173l1 207c72-158 192-221 342-221 226 0 378 139 378 422V0H872v-695c0-172-96-275-252-275-161 0-282 109-282 300" id="au"/><path fill="#4c535d" d="M598-1118v154H368v674c0 100 37 144 132 144 23 0 62-6 92-12L629-6c-37 13-88 20-134 20-193 0-307-107-307-290v-688H20v-154h168v-266h180v266h230" id="av"/><path fill="#4c535d" d="M128 359l88-567h206L266 359H128" id="aw"/><g id="i"><use transform="matrix(0.006510416666666667,0,0,0.006510416666666667,0,0)" xlink:href="#ao"/><use transform="matrix(0.006510416666666667,0,0,0.006510416666666667,8.515625,0)" xlink:href="#ap"/><use transform="matrix(0.006510416666666667,0,0,0.006510416666666667,11.744791666666668,0)" xlink:href="#aq"/><use transform="matrix(0.006510416666666667,0,0,0.006510416666666667,19.231770833333336,0)" xlink:href="#ar"/><use transform="matrix(0.006510416666666667,0,0,0.006510416666666667,26.848958333333336,0)" xlink:href="#as"/><use transform="matrix(0.006510416666666667,0,0,0.006510416666666667,34.622395833333336,0)" xlink:href="#at"/><use transform="matrix(0.006510416666666667,0,0,0.006510416666666667,46.302083333333336,0)" xlink:href="#as"/><use transform="matrix(0.006510416666666667,0,0,0.006510416666666667,54.075520833333336,0)" xlink:href="#au"/><use transform="matrix(0.006510416666666667,0,0,0.006510416666666667,61.953125,0)" xlink:href="#av"/><use transform="matrix(0.006510416666666667,0,0,0.006510416666666667,66.31510416666667,0)" xlink:href="#aw"/></g><path fill="#4c535d" d="M158 0v-1118h174v172h12c41-113 157-188 290-188 26 0 70 2 91 3v181c-11-2-60-10-108-10-161 0-279 109-279 260V0H158" id="ax"/><path fill="#4c535d" d="M481 0L54-1118h197c107 314 236 620 325 951 87-331 217-637 324-951h197L670 0H481" id="ay"/><path fill="#4c535d" d="M158 0v-1118h180V0H158zm91-1301c-68 0-125-53-125-119s57-119 125-119c69 0 126 53 126 119s-57 119-126 119" id="az"/><path fill="#4c535d" d="M409 0L70-1118h191c89 329 165 560 243 925 75-353 154-601 240-925h192c85 325 161 564 235 922 77-354 157-598 244-922h191L1267 0h-179c-86-307-176-590-250-913C763-588 675-308 588 0H409" id="aA"/><g id="j"><use transform="matrix(0.006510416666666667,0,0,0.006510416666666667,0,0)" xlink:href="#ao"/><use transform="matrix(0.006510416666666667,0,0,0.006510416666666667,8.515625,0)" xlink:href="#ax"/><use transform="matrix(0.006510416666666667,0,0,0.006510416666666667,13.313802083333334,0)" xlink:href="#as"/><use transform="matrix(0.006510416666666667,0,0,0.006510416666666667,20.826822916666668,0)" xlink:href="#ay"/><use transform="matrix(0.006510416666666667,0,0,0.006510416666666667,28.3203125,0)" xlink:href="#az"/><use transform="matrix(0.006510416666666667,0,0,0.006510416666666667,31.549479166666668,0)" xlink:href="#as"/><use transform="matrix(0.006510416666666667,0,0,0.006510416666666667,39.08203125,0)" xlink:href="#aA"/></g><g id="k"><use transform="matrix(0.009765625,0,0,0.009765625,0,0)" xlink:href="#al"/><use transform="matrix(0.009765625,0,0,0.009765625,12.87109375,0)" xlink:href="#ai"/><use transform="matrix(0.009765625,0,0,0.009765625,24.697265625,0)" xlink:href="#V"/><use transform="matrix(0.009765625,0,0,0.009765625,35.25390625,0)" xlink:href="#ac"/></g><path d="M180 0v-1490h528c311 0 458 177 458 395 0 191-114 278-244 313v14c139 9 302 137 302 371 0 225-148 397-499 397H180zm190-168h350c232 0 321-102 321-231 0-149-120-277-311-277H370v508zm0-668h328c160 0 286-101 286-255 0-129-87-231-280-231H370v486" id="aB"/><path d="M577 24c-279 0-473-224-473-580 0-354 195-576 474-576 218 0 287 134 324 193h14v-551h180V0H922v-173h-20C865-111 790 24 577 24zm27-161c203 0 314-172 314-421 0-247-108-413-314-413-212 0-317 181-317 413 0 235 108 421 317 421" id="aC"/><g id="l"><use transform="matrix(0.009765625,0,0,0.009765625,0,0)" xlink:href="#aB"/><use transform="matrix(0.009765625,0,0,0.009765625,13.0859375,0)" xlink:href="#X"/><use transform="matrix(0.009765625,0,0,0.009765625,24.31640625,0)" xlink:href="#Y"/><use transform="matrix(0.009765625,0,0,0.009765625,35.7421875,0)" xlink:href="#ab"/><use transform="matrix(0.009765625,0,0,0.009765625,46.26953125,0)" xlink:href="#S"/><use transform="matrix(0.009765625,0,0,0.009765625,57.9296875,0)" xlink:href="#R"/><use transform="matrix(0.009765625,0,0,0.009765625,69.74609375,0)" xlink:href="#aC"/></g><path fill="#4c535d" d="M645 0H180v-1490h484c435 0 692 280 692 742 0 466-257 748-711 748zM370-168h263c363 0 539-218 539-580 0-358-176-574-521-574H370v1154" id="aD"/><path fill="#4c535d" d="M180 0v-1490h901v168H370v510h643v168H370V0H180" id="aE"/><g id="m"><use transform="matrix(0.006510416666666667,0,0,0.006510416666666667,0,0)" xlink:href="#ao"/><use transform="matrix(0.006510416666666667,0,0,0.006510416666666667,8.515625,0)" xlink:href="#aD"/><use transform="matrix(0.006510416666666667,0,0,0.006510416666666667,18.138020833333336,0)" xlink:href="#aE"/></g><path fill="#4c535d" d="M613 24c-304 0-509-231-509-576 0-350 205-580 509-580 305 0 511 230 511 580 0 345-206 576-511 576zm0-161c226 0 329-195 329-415 0-222-103-419-329-419-223 0-326 196-326 419 0 220 103 415 326 415" id="aF"/><path fill="#4c535d" d="M158 418v-1536h174v179h20c37-59 106-193 324-193 279 0 474 222 474 576 0 356-194 580-473 580-213 0-288-135-325-197h-14v591H158zm492-555c209 0 317-186 317-421 0-232-105-413-317-413-206 0-314 166-314 413 0 249 111 421 314 421" id="aG"/><path fill="#4c535d" d="M538 24C308 24 148-78 108-271l171-41c32 123 123 178 257 178 156 0 256-77 256-169 0-77-54-128-164-154l-186-44c-203-48-300-148-300-305 0-192 176-326 414-326 230 0 351 112 402 269l-163 42c-31-80-94-158-238-158-133 0-233 69-233 162 0 83 57 129 188 160l169 40c203 48 298 149 298 302 0 196-179 339-441 339" id="aH"/><g id="n"><use transform="matrix(0.006510416666666667,0,0,0.006510416666666667,0,0)" xlink:href="#aF"/><use transform="matrix(0.006510416666666667,0,0,0.006510416666666667,7.994791666666667,0)" xlink:href="#aG"/><use transform="matrix(0.006510416666666667,0,0,0.006510416666666667,16.158854166666668,0)" xlink:href="#aH"/><use transform="matrix(0.006510416666666667,0,0,0.006510416666666667,23.196614583333336,0)" xlink:href="#aw"/></g><path fill="#4c535d" d="M338-670V0H158v-1490h180v566c73-149 190-208 336-208 226 0 379 139 379 422V0H872v-695c0-172-96-275-252-275-161 0-282 109-282 300" id="aI"/><path fill="#4c535d" d="M611 442c-248 0-391-105-460-228l146-94c47 65 117 165 314 165 178 0 307-82 307-266v-224h-17C863-141 792-18 576-18c-268 0-472-195-472-546 0-346 197-568 476-568 216 0 288 133 326 193h17v-179h175V29c0 289-215 413-487 413zm-5-620c203 0 314-146 314-390 0-237-108-403-314-403-213 0-319 180-319 403 0 230 109 390 319 390" id="aJ"/><g id="o"><use transform="matrix(0.006510416666666667,0,0,0.006510416666666667,0,0)" xlink:href="#aI"/><use transform="matrix(0.006510416666666667,0,0,0.006510416666666667,7.884114583333334,0)" xlink:href="#aq"/><use transform="matrix(0.006510416666666667,0,0,0.006510416666666667,15.37109375,0)" xlink:href="#aH"/><use transform="matrix(0.006510416666666667,0,0,0.006510416666666667,22.408854166666668,0)" xlink:href="#aI"/><use transform="matrix(0.006510416666666667,0,0,0.006510416666666667,30.29296875,0)" xlink:href="#az"/><use transform="matrix(0.006510416666666667,0,0,0.006510416666666667,33.522135416666664,0)" xlink:href="#au"/><use transform="matrix(0.006510416666666667,0,0,0.006510416666666667,41.39973958333333,0)" xlink:href="#aJ"/><use transform="matrix(0.006510416666666667,0,0,0.006510416666666667,49.576822916666664,0)" xlink:href="#aw"/></g><path fill="#4c535d" d="M140 405l46-156c120 36 205 19 263-150l32-93L54-1118h197c107 313 237 620 324 950 87-331 219-637 326-950h196L606 167c-68 178-176 259-334 259-64 0-113-12-132-21" id="aK"/><g id="p"><use transform="matrix(0.006510416666666667,0,0,0.006510416666666667,0,0)" xlink:href="#as"/><use transform="matrix(0.006510416666666667,0,0,0.006510416666666667,7.7734375,0)" xlink:href="#au"/><use transform="matrix(0.006510416666666667,0,0,0.006510416666666667,15.651041666666668,0)" xlink:href="#ar"/><use transform="matrix(0.006510416666666667,0,0,0.006510416666666667,23.268229166666668,0)" xlink:href="#ax"/><use transform="matrix(0.006510416666666667,0,0,0.006510416666666667,28.49609375,0)" xlink:href="#aK"/><use transform="matrix(0.006510416666666667,0,0,0.006510416666666667,35.989583333333336,0)" xlink:href="#aG"/><use transform="matrix(0.006510416666666667,0,0,0.006510416666666667,44.153645833333336,0)" xlink:href="#av"/><use transform="matrix(0.006510416666666667,0,0,0.006510416666666667,48.515625,0)" xlink:href="#az"/><use transform="matrix(0.006510416666666667,0,0,0.006510416666666667,51.744791666666664,0)" xlink:href="#aF"/><use transform="matrix(0.006510416666666667,0,0,0.006510416666666667,59.73958333333332,0)" xlink:href="#au"/><use transform="matrix(0.006510416666666667,0,0,0.006510416666666667,67.6171875,0)" xlink:href="#aw"/></g><path fill="#4c535d" d="M784 20c-382 0-662-292-662-764 0-473 280-766 662-766s660 293 660 766c0 282-99 499-260 629l192 255h-198L1049-33C969 2 880 20 784 20zm-62-486h198l156 205c112-98 183-261 183-483 0-383-209-590-475-590-268 0-477 208-477 590 0 380 209 588 477 588 54 0 106-9 154-25" id="aL"/><path fill="#4c535d" d="M180 0v-1490h510c348 0 508 194 508 460 0 198-88 351-276 417L1256 0h-220L726-579c-117 2-238 0-356 1V0H180zm190-747h312c235 0 327-108 327-283 0-177-92-293-329-293H370v576" id="aM"/><g id="q"><use transform="matrix(0.006510416666666667,0,0,0.006510416666666667,0,0)" xlink:href="#aL"/><use transform="matrix(0.006510416666666667,0,0,0.006510416666666667,10.1953125,0)" xlink:href="#aM"/></g><g id="r"><use transform="matrix(0.006510416666666667,0,0,0.006510416666666667,0,0)" xlink:href="#aJ"/><use transform="matrix(0.006510416666666667,0,0,0.006510416666666667,8.177083333333334,0)" xlink:href="#as"/><use transform="matrix(0.006510416666666667,0,0,0.006510416666666667,15.950520833333334,0)" xlink:href="#au"/></g><path d="M180 0v-1490h510c348 0 508 209 508 474 0 266-160 477-507 477H370V0H180zm190-706h312c236 0 327-133 327-310 0-176-91-307-329-307H370v617" id="aN"/><g id="s"><use transform="matrix(0.010850694444444444,0,0,0.010850694444444444,0,0)" xlink:href="#af"/><use transform="matrix(0.010850694444444444,0,0,0.010850694444444444,15.33203125,0)" xlink:href="#aN"/><use transform="matrix(0.010850694444444444,0,0,0.010850694444444444,29.524739583333332,0)" xlink:href="#an"/></g><path d="M481 0L54-1118h197c107 314 236 620 325 951 87-331 217-637 324-951h197L670 0H481" id="aO"/><g id="t"><use transform="matrix(0.010850694444444444,0,0,0.010850694444444444,0,0)" xlink:href="#O"/><use transform="matrix(0.010850694444444444,0,0,0.010850694444444444,14.2578125,0)" xlink:href="#S"/><use transform="matrix(0.010850694444444444,0,0,0.010850694444444444,27.213541666666664,0)" xlink:href="#T"/><use transform="matrix(0.010850694444444444,0,0,0.010850694444444444,35.92664930555555,0)" xlink:href="#aO"/><use transform="matrix(0.010850694444444444,0,0,0.010850694444444444,47.98177083333333,0)" xlink:href="#S"/><use transform="matrix(0.010850694444444444,0,0,0.010850694444444444,60.937499999999986,0)" xlink:href="#T"/></g><path fill="#6f7681" d="M218-607c0-325 108-727 258-974h175c-155 315-250 682-250 974 0 265 78 531 250 886H476C306-10 218-315 218-607" id="aP"/><path fill="#6f7681" d="M180 0v-1490h224l606 953c40 63 108 177 176 312-27-437-7-821-13-1265h190V0h-226C860-448 622-778 356-1262c27 476 11 792 15 1262H180" id="aQ"/><path fill="#6f7681" d="M628 24c-324 0-524-230-524-574 0-343 198-582 503-582 237 0 487 146 487 559v75H286c9 234 145 362 343 362 132 0 231-58 273-172l174 48C1024-91 857 24 628 24zM287-650h624c-17-190-120-322-304-322-192 0-309 151-320 322" id="aR"/><path fill="#6f7681" d="M538 24C308 24 148-78 108-271l171-41c32 123 123 178 257 178 156 0 256-77 256-169 0-77-54-128-164-154l-186-44c-203-48-300-148-300-305 0-192 176-326 414-326 230 0 351 112 402 269l-163 42c-31-80-94-158-238-158-133 0-233 69-233 162 0 83 57 129 188 160l169 40c203 48 298 149 298 302 0 196-179 339-441 339" id="aS"/><path fill="#6f7681" d="M598-1118v154H368v674c0 100 37 144 132 144 23 0 62-6 92-12L629-6c-37 13-88 20-134 20-193 0-307-107-307-290v-688H20v-154h168v-266h180v266h230" id="aT"/><path fill="#6f7681" d="M545 20c-263 0-445-160-445-446v-80h190v80c0 182 102 279 255 279 152 0 254-97 254-279v-1064h190v1064c0 286-181 446-444 446" id="aU"/><path fill="#6f7681" d="M657 26c-323 0-524-166-541-416h195c15 169 171 246 346 246 202 0 356-106 356-265 5-203-294-238-475-293-239-73-380-191-380-389 0-252 224-419 512-419 294 0 499 171 508 396H992c-17-145-151-228-328-228-193 0-321 102-321 242 0 156 175 211 284 241l149 41c160 44 422 134 422 412 0 244-197 432-541 432" id="aV"/><path fill="#6f7681" d="M96 279C273-86 346-350 346-607c0-292-95-659-250-974h175c150 246 258 650 258 974 0 297-91 602-258 886H96" id="aW"/><g id="u"><use transform="matrix(0.006510416666666667,0,0,0.006510416666666667,0,0)" xlink:href="#aP"/><use transform="matrix(0.006510416666666667,0,0,0.006510416666666667,4.86328125,0)" xlink:href="#aQ"/><use transform="matrix(0.006510416666666667,0,0,0.006510416666666667,14.908854166666668,0)" xlink:href="#aR"/><use transform="matrix(0.006510416666666667,0,0,0.006510416666666667,22.682291666666668,0)" xlink:href="#aS"/><use transform="matrix(0.006510416666666667,0,0,0.006510416666666667,29.720052083333336,0)" xlink:href="#aT"/><use transform="matrix(0.006510416666666667,0,0,0.006510416666666667,34.08203125,0)" xlink:href="#aU"/><use transform="matrix(0.006510416666666667,0,0,0.006510416666666667,41.692708333333336,0)" xlink:href="#aV"/><use transform="matrix(0.006510416666666667,0,0,0.006510416666666667,50.247395833333336,0)" xlink:href="#aW"/></g><path fill="#6f7681" d="M180 0v-1490h510c348 0 508 194 508 460 0 198-88 351-276 417L1256 0h-220L726-579c-117 2-238 0-356 1V0H180zm190-747h312c235 0 327-108 327-283 0-177-92-293-329-293H370v576" id="aX"/><path fill="#6f7681" d="M338-1490V0H158v-1490h180" id="aY"/><path fill="#6f7681" d="M471 26C259 26 90-98 90-318c0-256 228-303 435-329 202-27 287-16 287-108 0-139-79-219-234-219-161 0-248 86-283 164l-173-57c86-203 278-265 451-265 150 0 419 46 419 395V0H815v-152h-12C765-73 660 26 471 26zm31-159c199 0 310-134 310-271v-155c-30 35-226 55-295 64-131 17-246 59-246 186 0 116 97 176 231 176" id="aZ"/><path fill="#6f7681" d="M140 405l46-156c120 36 205 19 263-150l32-93L54-1118h197c107 313 237 620 324 950 87-331 219-637 326-950h196L606 167c-68 178-176 259-334 259-64 0-113-12-132-21" id="ba"/><g id="v"><use transform="matrix(0.006510416666666667,0,0,0.006510416666666667,0,0)" xlink:href="#aX"/><use transform="matrix(0.006510416666666667,0,0,0.006510416666666667,8.385416666666668,0)" xlink:href="#aR"/><use transform="matrix(0.006510416666666667,0,0,0.006510416666666667,16.158854166666668,0)" xlink:href="#aY"/><use transform="matrix(0.006510416666666667,0,0,0.006510416666666667,19.388020833333336,0)" xlink:href="#aZ"/><use transform="matrix(0.006510416666666667,0,0,0.006510416666666667,26.6796875,0)" xlink:href="#ba"/></g><path fill="#6f7681" d="M65 0l393-574-370-544h210c88 136 192 297 267 435 67-142 176-302 264-435h206L661-564 1053 0H844c-94-144-206-310-287-458C484-308 366-142 273 0H65" id="bb"/><path fill="#6f7681" d="M128 359l88-567h206L266 359H128" id="bc"/><g id="w"><use transform="matrix(0.006510416666666667,0,0,0.006510416666666667,0,0)" xlink:href="#aT"/><use transform="matrix(0.006510416666666667,0,0,0.006510416666666667,4.361979166666667,0)" xlink:href="#bb"/><use transform="matrix(0.006510416666666667,0,0,0.006510416666666667,11.640625,0)" xlink:href="#bc"/></g><path fill="#6f7681" d="M613 24c-304 0-509-231-509-576 0-350 205-580 509-580 305 0 511 230 511 580 0 345-206 576-511 576zm0-161c226 0 329-195 329-415 0-222-103-419-329-419-223 0-326 196-326 419 0 220 103 415 326 415" id="bd"/><path fill="#6f7681" d="M158 0v-1118h174v172h12c41-113 157-188 290-188 26 0 70 2 91 3v181c-11-2-60-10-108-10-161 0-279 109-279 260V0H158" id="be"/><g id="x"><use transform="matrix(0.006510416666666667,0,0,0.006510416666666667,0,0)" xlink:href="#aV"/><use transform="matrix(0.006510416666666667,0,0,0.006510416666666667,8.5546875,0)" xlink:href="#aT"/><use transform="matrix(0.006510416666666667,0,0,0.006510416666666667,12.786458333333332,0)" xlink:href="#bd"/><use transform="matrix(0.006510416666666667,0,0,0.006510416666666667,20.78125,0)" xlink:href="#be"/><use transform="matrix(0.006510416666666667,0,0,0.006510416666666667,25.579427083333332,0)" xlink:href="#aR"/></g><path fill="#6f7681" d="M158 418v-1536h174v179h20c37-59 106-193 324-193 279 0 474 222 474 576 0 356-194 580-473 580-213 0-288-135-325-197h-14v591H158zm492-555c209 0 317-186 317-421 0-232-105-413-317-413-206 0-314 166-314 413 0 249 111 421 314 421" id="bf"/><path fill="#6f7681" d="M577 24c-279 0-473-224-473-580 0-354 195-576 474-576 218 0 287 134 324 193h14v-551h180V0H922v-173h-20C865-111 790 24 577 24zm27-161c203 0 314-172 314-421 0-247-108-413-314-413-212 0-317 181-317 413 0 235 108 421 317 421" id="bg"/><g id="y"><use transform="matrix(0.006510416666666667,0,0,0.006510416666666667,0,0)" xlink:href="#bf"/><use transform="matrix(0.006510416666666667,0,0,0.006510416666666667,8.294270833333334,0)" xlink:href="#aZ"/><use transform="matrix(0.006510416666666667,0,0,0.006510416666666667,15.5859375,0)" xlink:href="#ba"/><use transform="matrix(0.006510416666666667,0,0,0.006510416666666667,23.14453125,0)" xlink:href="#aY"/><use transform="matrix(0.006510416666666667,0,0,0.006510416666666667,26.373697916666668,0)" xlink:href="#bd"/><use transform="matrix(0.006510416666666667,0,0,0.006510416666666667,34.498697916666664,0)" xlink:href="#aZ"/><use transform="matrix(0.006510416666666667,0,0,0.006510416666666667,41.98567708333333,0)" xlink:href="#bg"/><use transform="matrix(0.006510416666666667,0,0,0.006510416666666667,50.14973958333333,0)" xlink:href="#bc"/></g><path fill="#6f7681" d="M600 0L52-1490h200c166 485 304 806 458 1336 156-533 285-846 449-1336h202L819 0H600" id="bh"/><path fill="#6f7681" d="M158 0v-1118h180V0H158zm91-1301c-68 0-125-53-125-119s57-119 125-119c69 0 126 53 126 119s-57 119-126 119" id="bi"/><path fill="#6f7681" d="M678-1118v154H420V0H240v-964H20v-154h220v-149c0-194 155-293 318-293 85 0 141 18 168 30l-50 154c-19-6-47-17-97-17-111 0-159 58-159 166v109h258" id="bj"/><g id="z"><use transform="matrix(0.006510416666666667,0,0,0.006510416666666667,0,0)" xlink:href="#bh"/><use transform="matrix(0.006510416666666667,0,0,0.006510416666666667,8.522135416666666,0)" xlink:href="#aR"/><use transform="matrix(0.006510416666666667,0,0,0.006510416666666667,16.295572916666664,0)" xlink:href="#be"/><use transform="matrix(0.006510416666666667,0,0,0.006510416666666667,21.523437499999996,0)" xlink:href="#bi"/><use transform="matrix(0.006510416666666667,0,0,0.006510416666666667,24.752604166666664,0)" xlink:href="#bj"/><use transform="matrix(0.006510416666666667,0,0,0.006510416666666667,29.6875,0)" xlink:href="#ba"/></g><path fill="#333" d="M628 22C291 22 81-210 81-554c0-346 210-578 547-578 265 0 455 142 497 372l-279 52c-25-116-99-188-215-188-160 0-244 139-244 341 0 200 84 341 244 341 116 0 193-74 217-195l279 51C1085-123 896 22 628 22" id="bk"/><path fill="#333" d="M628 22C291 22 81-210 81-554c0-346 210-578 547-578 336 0 547 232 547 578 0 344-211 576-547 576zm0-236c160 0 242-146 242-341 0-197-82-341-242-341S387-753 387-555c0 195 81 341 241 341" id="bl"/><path fill="#333" d="M128 0v-1118h278l12 217c60-163 185-234 319-234 143 0 236 81 288 251 63-172 205-251 359-251 205 0 357 138 357 381V0h-301v-697c0-126-76-187-177-187-114 0-184 79-184 196V0H789v-705c0-109-72-179-174-179-106 0-187 74-187 208V0H128" id="bm"/><path fill="#333" d="M128 418v-1536h295v188h14c41-89 129-202 319-202 248 0 453 193 453 575 0 372-197 576-455 576-183 0-275-108-317-198h-9v597H128zm534-640c156 0 240-139 240-336 0-196-83-334-240-334-154 0-241 131-241 334 0 202 88 336 241 336" id="bn"/><path fill="#333" d="M572 22C302 22 117-98 78-306l279-48c29 105 101 156 224 156 114 0 185-48 185-115 0-118-228-130-337-155-215-49-322-150-322-317 0-215 187-347 470-347 265 0 424 116 466 298l-266 47c-24-76-87-130-196-130-98 0-174 46-174 113 0 56 38 95 144 117l201 40c216 44 320 143 320 302 0 220-207 367-500 367" id="bo"/><path fill="#333" d="M128 0v-1118h300V0H128zm150-1264c-91 0-165-68-165-154 0-85 74-154 165-154 90 0 165 69 165 154 0 86-75 154-165 154" id="bp"/><path fill="#333" d="M683-1118v229H474v562c0 71 29 104 102 104 23 0 73-7 95-13l43 225C647 9 580 16 520 16 296 16 174-96 174-301v-588H20v-229h154v-266h300v266h209" id="bq"/><path fill="#333" d="M633 22C291 22 81-200 81-553c0-345 210-579 537-579 292 0 525 185 525 567v84H378c7 183 109 277 260 277 105 0 184-46 216-132l272 51C1071-99 893 22 633 22zM380-669h474c-15-146-94-237-233-237-143 0-229 99-241 237" id="br"/><g id="A"><use transform="matrix(0.008680555555555556,0,0,0.008680555555555556,0,0)" xlink:href="#bk"/><use transform="matrix(0.008680555555555556,0,0,0.008680555555555556,10.460069444444445,0)" xlink:href="#bl"/><use transform="matrix(0.008680555555555556,0,0,0.008680555555555556,21.36284722222222,0)" xlink:href="#bm"/><use transform="matrix(0.008680555555555556,0,0,0.008680555555555556,37.58680555555556,0)" xlink:href="#bn"/><use transform="matrix(0.008680555555555556,0,0,0.008680555555555556,48.79340277777778,0)" xlink:href="#bl"/><use transform="matrix(0.008680555555555556,0,0,0.008680555555555556,59.69618055555556,0)" xlink:href="#bo"/><use transform="matrix(0.008680555555555556,0,0,0.008680555555555556,69.65277777777779,0)" xlink:href="#bp"/><use transform="matrix(0.008680555555555556,0,0,0.008680555555555556,74.47048611111111,0)" xlink:href="#bq"/><use transform="matrix(0.008680555555555556,0,0,0.008680555555555556,80.80729166666667,0)" xlink:href="#br"/></g><path fill="#333" d="M428-647V0H128v-1490h294v586c65-146 175-228 341-228 232 0 385 159 385 421V0H847v-659c0-139-76-222-202-222-128 0-217 86-217 234" id="bs"/><path fill="#333" d="M440 22C227 22 68-92 68-313c0-250 202-322 422-343 195-21 271-24 271-105 0-95-63-149-175-149-116 0-187 57-211 129l-275-46c57-194 237-305 487-305 240 0 474 108 474 379V0H777v-155h-10C713-51 605 22 440 22zm85-211c140 0 238-93 238-211v-121c-37 26-156 42-222 51-111 16-185 59-185 149 0 87 70 132 169 132" id="bt"/><g id="B"><use transform="matrix(0.008680555555555556,0,0,0.008680555555555556,0,0)" xlink:href="#bs"/><use transform="matrix(0.008680555555555556,0,0,0.008680555555555556,11.067708333333334,0)" xlink:href="#bt"/><use transform="matrix(0.008680555555555556,0,0,0.008680555555555556,21.38888888888889,0)" xlink:href="#bo"/><use transform="matrix(0.008680555555555556,0,0,0.008680555555555556,31.345486111111114,0)" xlink:href="#bs"/></g><path fill="#333" d="M568-82v-393H183v-240h385v-393h254v393h386v240H822v393H568" id="bu"/><use transform="matrix(0.008680555555555556,0,0,0.008680555555555556,0,0)" xlink:href="#bu" id="C"/><path fill="#333" d="M428-647V0H128v-1118h283l4 231c63-156 176-245 348-245 232 0 384 159 384 421V0H847v-659c0-139-76-222-202-222-128 0-217 86-217 234" id="bv"/><path fill="#333" d="M128 0v-1118h290v195h12c54-169 184-238 367-200v268c-27-8-86-15-130-15-138 0-239 95-239 234V0H128" id="bw"/><path fill="#333" d="M120 396l69-226c123 42 245 23 254-107l8-60L31-1118h319c87 288 199 559 259 872 72-308 185-583 277-872h315L726 132c-68 181-186 294-410 294-79 0-153-13-196-30" id="bx"/><path fill="#333" d="M537 19C279 19 81-185 81-557c0-382 206-575 454-575 190 0 278 113 318 202h10v-560h300V0H868v-179h-15C812-89 719 19 537 19zm92-241c153 0 240-134 240-336 0-203-86-334-240-334-158 0-240 138-240 334 0 197 84 336 240 336" id="by"/><g id="D"><use transform="matrix(0.008680555555555556,0,0,0.008680555555555556,0,0)" xlink:href="#br"/><use transform="matrix(0.008680555555555556,0,0,0.008680555555555556,10.590277777777779,0)" xlink:href="#bv"/><use transform="matrix(0.008680555555555556,0,0,0.008680555555555556,21.657986111111114,0)" xlink:href="#bk"/><use transform="matrix(0.008680555555555556,0,0,0.008680555555555556,32.11805555555556,0)" xlink:href="#bw"/><use transform="matrix(0.008680555555555556,0,0,0.008680555555555556,39.63541666666667,0)" xlink:href="#bx"/><use transform="matrix(0.008680555555555556,0,0,0.008680555555555556,50.33854166666667,0)" xlink:href="#bn"/><use transform="matrix(0.008680555555555556,0,0,0.008680555555555556,61.54513888888889,0)" xlink:href="#bq"/><use transform="matrix(0.008680555555555556,0,0,0.008680555555555556,67.88194444444444,0)" xlink:href="#br"/><use transform="matrix(0.008680555555555556,0,0,0.008680555555555556,78.47222222222223,0)" xlink:href="#by"/></g><path fill="#333" d="M428-1490V0H128v-1490h300" id="bz"/><g id="E"><use transform="matrix(0.008680555555555556,0,0,0.008680555555555556,0,0)" xlink:href="#bn"/><use transform="matrix(0.008680555555555556,0,0,0.008680555555555556,11.380208333333334,0)" xlink:href="#bt"/><use transform="matrix(0.008680555555555556,0,0,0.008680555555555556,21.397569444444443,0)" xlink:href="#bx"/><use transform="matrix(0.008680555555555556,0,0,0.008680555555555556,32.14409722222222,0)" xlink:href="#bz"/><use transform="matrix(0.008680555555555556,0,0,0.008680555555555556,36.96180555555556,0)" xlink:href="#bl"/><use transform="matrix(0.008680555555555556,0,0,0.008680555555555556,48.03819444444445,0)" xlink:href="#bt"/><use transform="matrix(0.008680555555555556,0,0,0.008680555555555556,58.35937500000001,0)" xlink:href="#by"/></g><path d="M677 24c-213 0-288-135-325-197h-20V0H158v-1490h180v551h14c37-59 106-193 324-193 279 0 474 222 474 576 0 356-194 580-473 580zm-27-161c209 0 317-186 317-421 0-232-105-413-317-413-206 0-314 166-314 413 0 249 111 421 314 421" id="bA"/><g id="F"><use transform="matrix(0.010850694444444444,0,0,0.010850694444444444,0,0)" xlink:href="#aa"/><use transform="matrix(0.010850694444444444,0,0,0.010850694444444444,16.03732638888889,0)" xlink:href="#X"/><use transform="matrix(0.010850694444444444,0,0,0.010850694444444444,28.515625,0)" xlink:href="#ac"/><use transform="matrix(0.010850694444444444,0,0,0.010850694444444444,35.89409722222222,0)" xlink:href="#X"/><use transform="matrix(0.010850694444444444,0,0,0.010850694444444444,48.37239583333333,0)" xlink:href="#bA"/><use transform="matrix(0.010850694444444444,0,0,0.010850694444444444,62.19618055555554,0)" xlink:href="#X"/><use transform="matrix(0.010850694444444444,0,0,0.010850694444444444,74.67447916666666,0)" xlink:href="#V"/><use transform="matrix(0.010850694444444444,0,0,0.010850694444444444,86.4040798611111,0)" xlink:href="#S"/></g><path fill="#4c535d" d="M218-607c0-325 108-727 258-974h175c-155 315-250 682-250 974 0 265 78 531 250 886H476C306-10 218-315 218-607" id="bB"/><path fill="#4c535d" d="M96 279C273-86 346-350 346-607c0-292-95-659-250-974h175c150 246 258 650 258 974 0 297-91 602-258 886H96" id="bC"/><g id="G"><use transform="matrix(0.006510416666666667,0,0,0.006510416666666667,0,0)" xlink:href="#bB"/><use transform="matrix(0.006510416666666667,0,0,0.006510416666666667,4.86328125,0)" xlink:href="#ao"/><use transform="matrix(0.006510416666666667,0,0,0.006510416666666667,13.37890625,0)" xlink:href="#ax"/><use transform="matrix(0.006510416666666667,0,0,0.006510416666666667,18.606770833333336,0)" xlink:href="#az"/><use transform="matrix(0.006510416666666667,0,0,0.006510416666666667,21.835937500000004,0)" xlink:href="#aH"/><use transform="matrix(0.006510416666666667,0,0,0.006510416666666667,28.873697916666675,0)" xlink:href="#at"/><use transform="matrix(0.006510416666666667,0,0,0.006510416666666667,40.55338541666667,0)" xlink:href="#aq"/><use transform="matrix(0.006510416666666667,0,0,0.006510416666666667,48.040364583333336,0)" xlink:href="#bC"/></g><path d="M600 0L52-1490h200c166 485 304 806 458 1336 156-533 285-846 449-1336h202L819 0H600" id="bD"/><path d="M678-1118v154H420V0H240v-964H20v-154h220v-149c0-194 155-293 318-293 85 0 141 18 168 30l-50 154c-19-6-47-17-97-17-111 0-159 58-159 166v109h258" id="bE"/><g id="H"><use transform="matrix(0.010850694444444444,0,0,0.010850694444444444,0,0)" xlink:href="#bD"/><use transform="matrix(0.010850694444444444,0,0,0.010850694444444444,14.20355902777778,0)" xlink:href="#S"/><use transform="matrix(0.010850694444444444,0,0,0.010850694444444444,27.159288194444443,0)" xlink:href="#T"/><use transform="matrix(0.010850694444444444,0,0,0.010850694444444444,35.87239583333333,0)" xlink:href="#P"/><use transform="matrix(0.010850694444444444,0,0,0.010850694444444444,41.25434027777777,0)" xlink:href="#bE"/><use transform="matrix(0.010850694444444444,0,0,0.010850694444444444,49.47916666666666,0)" xlink:href="#P"/><use transform="matrix(0.010850694444444444,0,0,0.010850694444444444,54.8611111111111,0)" xlink:href="#Y"/><use transform="matrix(0.010850694444444444,0,0,0.010850694444444444,67.77343749999999,0)" xlink:href="#X"/><use transform="matrix(0.010850694444444444,0,0,0.010850694444444444,80.2517361111111,0)" xlink:href="#ac"/><use transform="matrix(0.010850694444444444,0,0,0.010850694444444444,87.52170138888887,0)" xlink:href="#P"/><use transform="matrix(0.010850694444444444,0,0,0.010850694444444444,92.90364583333331,0)" xlink:href="#ad"/><use transform="matrix(0.010850694444444444,0,0,0.010850694444444444,106.22829861111109,0)" xlink:href="#R"/></g><path fill="#4c535d" d="M458 0L52-1490h194c108 439 233 855 324 1313 92-459 221-873 331-1313h216c110 438 234 854 330 1307 92-455 216-869 323-1307h196L1558 0h-221l-256-944c-26-95-50-200-73-331-22 122-44 223-73 331L680 0H458" id="bF"/><path fill="#4c535d" d="M677 24c-213 0-288-135-325-197h-20V0H158v-1490h180v551h14c37-59 106-193 324-193 279 0 474 222 474 576 0 356-194 580-473 580zm-27-161c209 0 317-186 317-421 0-232-105-413-317-413-206 0-314 166-314 413 0 249 111 421 314 421" id="bG"/><g id="I"><use transform="matrix(0.006510416666666667,0,0,0.006510416666666667,0,0)" xlink:href="#bF"/><use transform="matrix(0.006510416666666667,0,0,0.006510416666666667,12.4609375,0)" xlink:href="#as"/><use transform="matrix(0.006510416666666667,0,0,0.006510416666666667,20.234375,0)" xlink:href="#bG"/></g><path fill="#4c535d" d="M52 0l541-1490h220L1361 0h-200l-149-416H398L254 0H52zm404-582h497c-103-290-145-390-251-756-108 377-145 460-246 756" id="bH"/><g id="J"><use transform="matrix(0.006510416666666667,0,0,0.006510416666666667,0,0)" xlink:href="#bH"/><use transform="matrix(0.006510416666666667,0,0,0.006510416666666667,9.19921875,0)" xlink:href="#aG"/><use transform="matrix(0.006510416666666667,0,0,0.006510416666666667,17.36328125,0)" xlink:href="#aG"/></g><g id="K"><use transform="matrix(0.006510416666666667,0,0,0.006510416666666667,0,0)" xlink:href="#bB"/><use transform="matrix(0.006510416666666667,0,0,0.006510416666666667,4.86328125,0)" xlink:href="#aM"/><use transform="matrix(0.006510416666666667,0,0,0.006510416666666667,13.248697916666668,0)" xlink:href="#as"/><use transform="matrix(0.006510416666666667,0,0,0.006510416666666667,21.15234375,0)" xlink:href="#aq"/><use transform="matrix(0.006510416666666667,0,0,0.006510416666666667,28.639322916666668,0)" xlink:href="#ar"/><use transform="matrix(0.006510416666666667,0,0,0.006510416666666667,36.25651041666667,0)" xlink:href="#av"/><use transform="matrix(0.006510416666666667,0,0,0.006510416666666667,40.618489583333336,0)" xlink:href="#bC"/></g><path d="M338-1490V0H158v-1490h180" id="bI"/><g id="L"><use transform="matrix(0.010850694444444444,0,0,0.010850694444444444,0,0)" xlink:href="#aB"/><use transform="matrix(0.010850694444444444,0,0,0.010850694444444444,14.539930555555555,0)" xlink:href="#bI"/><use transform="matrix(0.010850694444444444,0,0,0.010850694444444444,19.921875,0)" xlink:href="#ad"/><use transform="matrix(0.010850694444444444,0,0,0.010850694444444444,33.24652777777778,0)" xlink:href="#Y"/><use transform="matrix(0.010850694444444444,0,0,0.010850694444444444,45.94184027777778,0)" xlink:href="#ab"/><use transform="matrix(0.010850694444444444,0,0,0.010850694444444444,57.6388888888889,0)" xlink:href="#Y"/><use transform="matrix(0.010850694444444444,0,0,0.010850694444444444,70.33420138888889,0)" xlink:href="#Z"/><use transform="matrix(0.010850694444444444,0,0,0.010850694444444444,83.47439236111111,0)" xlink:href="#X"/><use transform="matrix(0.010850694444444444,0,0,0.010850694444444444,95.95269097222221,0)" xlink:href="#P"/><use transform="matrix(0.010850694444444444,0,0,0.010850694444444444,101.33463541666666,0)" xlink:href="#R"/></g><path fill="#4c535d" d="M657 26c-323 0-524-166-541-416h195c15 169 171 246 346 246 202 0 356-106 356-265 5-203-294-238-475-293-239-73-380-191-380-389 0-252 224-419 512-419 294 0 499 171 508 396H992c-17-145-151-228-328-228-193 0-321 102-321 242 0 156 175 211 284 241l149 41c160 44 422 134 422 412 0 244-197 432-541 432" id="bJ"/><g id="M"><use transform="matrix(0.006510416666666667,0,0,0.006510416666666667,0,0)" xlink:href="#bB"/><use transform="matrix(0.006510416666666667,0,0,0.006510416666666667,4.86328125,0)" xlink:href="#bJ"/><use transform="matrix(0.006510416666666667,0,0,0.006510416666666667,13.41796875,0)" xlink:href="#at"/><use transform="matrix(0.006510416666666667,0,0,0.006510416666666667,25.09765625,0)" xlink:href="#aq"/><use transform="matrix(0.006510416666666667,0,0,0.006510416666666667,32.584635416666664,0)" xlink:href="#ax"/><use transform="matrix(0.006510416666666667,0,0,0.006510416666666667,37.8125,0)" xlink:href="#av"/></g><path fill="#4c535d" d="M783 20c-382 0-661-292-661-764 0-473 279-766 661-766 302 0 548 182 601 489h-190c-42-204-217-313-411-313-268 0-476 208-476 590 0 381 209 588 476 588 195 0 369-110 411-313h190c-52 303-296 489-601 489" id="bK"/><g id="N"><use transform="matrix(0.006510416666666667,0,0,0.006510416666666667,0,0)" xlink:href="#bK"/><use transform="matrix(0.006510416666666667,0,0,0.006510416666666667,9.739583333333334,0)" xlink:href="#aF"/><use transform="matrix(0.006510416666666667,0,0,0.006510416666666667,17.734375,0)" xlink:href="#au"/><use transform="matrix(0.006510416666666667,0,0,0.006510416666666667,25.611979166666668,0)" xlink:href="#av"/><use transform="matrix(0.006510416666666667,0,0,0.006510416666666667,29.973958333333336,0)" xlink:href="#ax"/><use transform="matrix(0.006510416666666667,0,0,0.006510416666666667,34.993489583333336,0)" xlink:href="#aq"/><use transform="matrix(0.006510416666666667,0,0,0.006510416666666667,42.48046875,0)" xlink:href="#ar"/><use transform="matrix(0.006510416666666667,0,0,0.006510416666666667,50.09765625,0)" xlink:href="#av"/><use transform="matrix(0.006510416666666667,0,0,0.006510416666666667,54.45963541666667,0)" xlink:href="#bC"/></g></defs></g></svg>