<svg xmlns="http://www.w3.org/2000/svg" xmlns:xlink="http://www.w3.org/1999/xlink" xmlns:lucid="lucid" width="882" height="401"><g transform="translate(-439 -239)" lucid:page-tab-id="rxgHvnX9jG0b"><path d="M760 246a6 6 0 0 1 6-6h228a6 6 0 0 1 6 6v108a6 6 0 0 1-6 6H766a6 6 0 0 1-6-6z" stroke="#635dff" stroke-width="2" fill="#f2f2ff"/><use xlink:href="#a" transform="matrix(1,0,0,1,772,252) translate(50.76801215277778 45.52777777777778)"/><use xlink:href="#b" transform="matrix(1,0,0,1,772,252) translate(51.232421875 69.18229166666667)"/><use xlink:href="#c" transform="matrix(1,0,0,1,772,252) translate(120.88736979166666 69.18229166666667)"/><path d="M760 446a6 6 0 0 1 6-6h228a6 6 0 0 1 6 6v108a6 6 0 0 1-6 6H766a6 6 0 0 1-6-6z" stroke="#635dff" stroke-width="2" fill="#fff"/><use xlink:href="#d" transform="matrix(1,0,0,1,772,452) translate(52.476996527777786 36.52777777777778)"/><use xlink:href="#e" transform="matrix(1,0,0,1,772,452) translate(94.21961805555557 36.52777777777778)"/><use xlink:href="#f" transform="matrix(1,0,0,1,772,452) translate(60.48372395833333 60.18229166666667)"/><use xlink:href="#g" transform="matrix(1,0,0,1,772,452) translate(105.44466145833333 60.18229166666667)"/><use xlink:href="#h" transform="matrix(1,0,0,1,772,452) translate(121.42122395833333 60.18229166666667)"/><use xlink:href="#i" transform="matrix(1,0,0,1,772,452) translate(23.68684895833333 79.54166666666667)"/><use xlink:href="#j" transform="matrix(1,0,0,1,772,452) translate(58.576171875 79.54166666666667)"/><use xlink:href="#k" transform="matrix(1,0,0,1,772,452) translate(88.986328125 79.54166666666667)"/><use xlink:href="#l" transform="matrix(1,0,0,1,772,452) translate(164.748046875 79.54166666666667)"/><path d="M1080 446a6 6 0 0 1 6-6h228a6 6 0 0 1 6 6v108a6 6 0 0 1-6 6h-228a6 6 0 0 1-6-6z" stroke="#635dff" stroke-width="2" fill="#fff"/><use xlink:href="#m" transform="matrix(1,0,0,1,1092,452) translate(21.53081597222223 36.52777777777778)"/><use xlink:href="#n" transform="matrix(1,0,0,1,1092,452) translate(147.1384548611111 36.52777777777778)"/><use xlink:href="#o" transform="matrix(1,0,0,1,1092,452) translate(44.38346354166667 60.18229166666667)"/><use xlink:href="#p" transform="matrix(1,0,0,1,1092,452) translate(105.30143229166666 60.18229166666667)"/><use xlink:href="#q" transform="matrix(1,0,0,1,1092,452) translate(120.158203125 60.18229166666667)"/><use xlink:href="#r" transform="matrix(1,0,0,1,1092,452) translate(35.66927083333333 79.54166666666667)"/><use xlink:href="#s" transform="matrix(1,0,0,1,1092,452) translate(62.85677083333333 79.54166666666667)"/><use xlink:href="#t" transform="matrix(1,0,0,1,1092,452) translate(102.0234375 79.54166666666667)"/><use xlink:href="#u" transform="matrix(1,0,0,1,1092,452) translate(146.2421875 79.54166666666667)"/><path d="M880 361.5v61.12" stroke="#635dff" fill="none"/><path d="M880.48 361.5h-.96v-.5h.96z" stroke="#635dff" stroke-width=".05" fill="#635dff"/><path d="M880 437.38l-4.63-14.26h9.26z" stroke="#635dff" fill="#635dff"/><path d="M922.67 361.5V394a6 6 0 0 0 6 6H1194a6 6 0 0 1 6 6v16.62" stroke="#635dff" fill="none"/><path d="M923.14 361.5h-.95v-.5h.94z" stroke="#635dff" stroke-width=".05" fill="#635dff"/><path d="M1200 437.38l-4.63-14.26h9.27z" stroke="#635dff" fill="#635dff"/><path d="M440 446a6 6 0 0 1 6-6h228a6 6 0 0 1 6 6v108a6 6 0 0 1-6 6H446a6 6 0 0 1-6-6z" stroke="#635dff" stroke-width="2" fill="#fff"/><g><use xlink:href="#v" transform="matrix(1,0,0,1,452,452) translate(40.150607638888886 36.52777777777778)"/><use xlink:href="#w" transform="matrix(1,0,0,1,452,452) translate(133.30381944444446 36.52777777777778)"/><use xlink:href="#x" transform="matrix(1,0,0,1,452,452) translate(68.44921875 60.18229166666667)"/><use xlink:href="#y" transform="matrix(1,0,0,1,452,452) translate(107.07552083333334 60.18229166666667)"/><use xlink:href="#z" transform="matrix(1,0,0,1,452,452) translate(39.89127604166667 79.54166666666667)"/><use xlink:href="#A" transform="matrix(1,0,0,1,452,452) translate(69.650390625 79.54166666666667)"/><use xlink:href="#B" transform="matrix(1,0,0,1,452,452) translate(122.560546875 79.54166666666667)"/></g><path d="M842.67 361.5V394a6 6 0 0 1-6 6H566a6 6 0 0 0-6 6v16.62" stroke="#635dff" fill="none"/><path d="M843.14 361.5h-.95v-.5h.94z" stroke="#635dff" stroke-width=".05" fill="#635dff"/><path d="M560 437.38l-4.63-14.26h9.26z" stroke="#635dff" fill="#635dff"/><path d="M440 614.48a6 6 0 0 1 6-6h326.9a6 6 0 0 1 6 6V634a6 6 0 0 1-6 6H446a6 6 0 0 1-6-6z" fill="none"/><g><use xlink:href="#C" transform="matrix(1,0,0,1,445,613.4795833333334) translate(0 17.46701388888889)"/><use xlink:href="#D" transform="matrix(1,0,0,1,445,613.4795833333334) translate(29.0625 17.46701388888889)"/><use xlink:href="#E" transform="matrix(1,0,0,1,445,613.4795833333334) translate(83.70659722222223 17.46701388888889)"/><use xlink:href="#F" transform="matrix(1,0,0,1,445,613.4795833333334) translate(183.7673611111111 17.46701388888889)"/><use xlink:href="#G" transform="matrix(1,0,0,1,445,613.4795833333334) translate(234.52256944444443 17.46701388888889)"/><use xlink:href="#H" transform="matrix(1,0,0,1,445,613.4795833333334) translate(259.04513888888886 17.46701388888889)"/><use xlink:href="#I" transform="matrix(1,0,0,1,445,613.4795833333334) translate(290.625 17.46701388888889)"/></g><defs><path d="M180 0v-1490h528c311 0 458 177 458 395 0 191-114 278-244 313v14c139 9 302 137 302 371 0 225-148 397-499 397H180zm190-168h350c232 0 321-102 321-231 0-149-120-277-311-277H370v508zm0-668h328c160 0 286-101 286-255 0-129-87-231-280-231H370v486" id="J"/><path d="M338-1490V0H158v-1490h180" id="K"/><path d="M613 24c-304 0-509-231-509-576 0-350 205-580 509-580 305 0 511 230 511 580 0 345-206 576-511 576zm0-161c226 0 329-195 329-415 0-222-103-419-329-419-223 0-326 196-326 419 0 220 103 415 326 415" id="L"/><path d="M613 24c-304 0-509-231-509-576 0-350 205-580 509-580 216 0 392 114 453 309l-173 49c-33-115-133-197-280-197-223 0-326 196-326 419 0 220 103 415 326 415 150 0 252-85 285-206l172 49C1010-95 832 24 613 24" id="M"/><path d="M158 0v-1490h180v865h22l478-493h223L593-638 1096 0H865L456-523 338-412V0H158" id="N"/><path d="M338-670V0H158v-1490h180v566c73-149 190-208 336-208 226 0 379 139 379 422V0H872v-695c0-172-96-275-252-275-161 0-282 109-282 300" id="O"/><path d="M158 0v-1118h180V0H158zm91-1301c-68 0-125-53-125-119s57-119 125-119c69 0 126 53 126 119s-57 119-126 119" id="P"/><path d="M471 26C259 26 90-98 90-318c0-256 228-303 435-329 202-27 287-16 287-108 0-139-79-219-234-219-161 0-248 86-283 164l-173-57c86-203 278-265 451-265 150 0 419 46 419 395V0H815v-152h-12C765-73 660 26 471 26zm31-159c199 0 310-134 310-271v-155c-30 35-226 55-295 64-131 17-246 59-246 186 0 116 97 176 231 176" id="Q"/><path d="M338-670V0H158v-1118h173l1 207c72-158 192-221 342-221 226 0 378 139 378 422V0H872v-695c0-172-96-275-252-275-161 0-282 109-282 300" id="R"/><g id="a"><use transform="matrix(0.010850694444444444,0,0,0.010850694444444444,0,0)" xlink:href="#J"/><use transform="matrix(0.010850694444444444,0,0,0.010850694444444444,14.539930555555555,0)" xlink:href="#K"/><use transform="matrix(0.010850694444444444,0,0,0.010850694444444444,19.921875,0)" xlink:href="#L"/><use transform="matrix(0.010850694444444444,0,0,0.010850694444444444,33.24652777777778,0)" xlink:href="#M"/><use transform="matrix(0.010850694444444444,0,0,0.010850694444444444,45.94184027777778,0)" xlink:href="#N"/><use transform="matrix(0.010850694444444444,0,0,0.010850694444444444,57.6388888888889,0)" xlink:href="#M"/><use transform="matrix(0.010850694444444444,0,0,0.010850694444444444,70.33420138888889,0)" xlink:href="#O"/><use transform="matrix(0.010850694444444444,0,0,0.010850694444444444,83.47439236111111,0)" xlink:href="#P"/><use transform="matrix(0.010850694444444444,0,0,0.010850694444444444,88.85633680555556,0)" xlink:href="#Q"/><use transform="matrix(0.010850694444444444,0,0,0.010850694444444444,101.33463541666666,0)" xlink:href="#R"/></g><path fill="#6f7681" d="M370-1490V0H180v-1490h190" id="S"/><path fill="#6f7681" d="M158 0v-1118h175l1 205c55-151 181-225 313-225 147 0 245 90 285 228 53-141 190-228 352-228 194 0 352 125 352 384V0h-181v-749c0-161-105-225-225-225-151 0-243 103-243 244V0H807v-767c0-124-93-207-219-207-131 0-250 92-250 270V0H158" id="T"/><path fill="#6f7681" d="M537 14c-226 0-379-139-379-422v-710h180v695c0 172 97 275 253 275 160 0 281-109 281-300v-670h181V0H879v-209C806-46 684 14 537 14" id="U"/><path fill="#6f7681" d="M598-1118v154H368v674c0 100 37 144 132 144 23 0 62-6 92-12L629-6c-37 13-88 20-134 20-193 0-307-107-307-290v-688H20v-154h168v-266h180v266h230" id="V"/><path fill="#6f7681" d="M471 26C259 26 90-98 90-318c0-256 228-303 435-329 202-27 287-16 287-108 0-139-79-219-234-219-161 0-248 86-283 164l-173-57c86-203 278-265 451-265 150 0 419 46 419 395V0H815v-152h-12C765-73 660 26 471 26zm31-159c199 0 310-134 310-271v-155c-30 35-226 55-295 64-131 17-246 59-246 186 0 116 97 176 231 176" id="W"/><path fill="#6f7681" d="M677 24c-213 0-288-135-325-197h-20V0H158v-1490h180v551h14c37-59 106-193 324-193 279 0 474 222 474 576 0 356-194 580-473 580zm-27-161c209 0 317-186 317-421 0-232-105-413-317-413-206 0-314 166-314 413 0 249 111 421 314 421" id="X"/><path fill="#6f7681" d="M338-1490V0H158v-1490h180" id="Y"/><path fill="#6f7681" d="M628 24c-324 0-524-230-524-574 0-343 198-582 503-582 237 0 487 146 487 559v75H286c9 234 145 362 343 362 132 0 231-58 273-172l174 48C1024-91 857 24 628 24zM287-650h624c-17-190-120-322-304-322-192 0-309 151-320 322" id="Z"/><g id="b"><use transform="matrix(0.006510416666666667,0,0,0.006510416666666667,0,0)" xlink:href="#S"/><use transform="matrix(0.006510416666666667,0,0,0.006510416666666667,3.580729166666667,0)" xlink:href="#T"/><use transform="matrix(0.006510416666666667,0,0,0.006510416666666667,15.260416666666668,0)" xlink:href="#T"/><use transform="matrix(0.006510416666666667,0,0,0.006510416666666667,26.940104166666668,0)" xlink:href="#U"/><use transform="matrix(0.006510416666666667,0,0,0.006510416666666667,34.82421875,0)" xlink:href="#V"/><use transform="matrix(0.006510416666666667,0,0,0.006510416666666667,39.25130208333333,0)" xlink:href="#W"/><use transform="matrix(0.006510416666666667,0,0,0.006510416666666667,46.73828124999999,0)" xlink:href="#X"/><use transform="matrix(0.006510416666666667,0,0,0.006510416666666667,54.90234374999999,0)" xlink:href="#Y"/><use transform="matrix(0.006510416666666667,0,0,0.006510416666666667,58.13151041666666,0)" xlink:href="#Z"/></g><path fill="#6f7681" d="M338-670V0H158v-1118h173l1 207c72-158 192-221 342-221 226 0 378 139 378 422V0H872v-695c0-172-96-275-252-275-161 0-282 109-282 300" id="aa"/><path fill="#6f7681" d="M613 24c-304 0-509-231-509-576 0-350 205-580 509-580 216 0 392 114 453 309l-173 49c-33-115-133-197-280-197-223 0-326 196-326 419 0 220 103 415 326 415 150 0 252-85 285-206l172 49C1010-95 832 24 613 24" id="ab"/><path fill="#6f7681" d="M338-670V0H158v-1490h180v566c73-149 190-208 336-208 226 0 379 139 379 422V0H872v-695c0-172-96-275-252-275-161 0-282 109-282 300" id="ac"/><path fill="#6f7681" d="M613 24c-304 0-509-231-509-576 0-350 205-580 509-580 305 0 511 230 511 580 0 345-206 576-511 576zm0-161c226 0 329-195 329-415 0-222-103-419-329-419-223 0-326 196-326 419 0 220 103 415 326 415" id="ad"/><path fill="#6f7681" d="M158 0v-1118h174v172h12c41-113 157-188 290-188 26 0 70 2 91 3v181c-11-2-60-10-108-10-161 0-279 109-279 260V0H158" id="ae"/><g id="c"><use transform="matrix(0.006510416666666667,0,0,0.006510416666666667,0,0)" xlink:href="#W"/><use transform="matrix(0.006510416666666667,0,0,0.006510416666666667,7.486979166666667,0)" xlink:href="#aa"/><use transform="matrix(0.006510416666666667,0,0,0.006510416666666667,15.364583333333334,0)" xlink:href="#ab"/><use transform="matrix(0.006510416666666667,0,0,0.006510416666666667,22.981770833333336,0)" xlink:href="#ac"/><use transform="matrix(0.006510416666666667,0,0,0.006510416666666667,30.865885416666675,0)" xlink:href="#ad"/><use transform="matrix(0.006510416666666667,0,0,0.006510416666666667,38.860677083333336,0)" xlink:href="#ae"/></g><path d="M52 0l541-1490h220L1361 0h-200l-149-416H398L254 0H52zm404-582h497c-103-290-145-390-251-756-108 377-145 460-246 756" id="af"/><path d="M180 0v-1490h510c348 0 508 209 508 474 0 266-160 477-507 477H370V0H180zm190-706h312c236 0 327-133 327-310 0-176-91-307-329-307H370v617" id="ag"/><path d="M370-1490V0H180v-1490h190" id="ah"/><g id="d"><use transform="matrix(0.010850694444444444,0,0,0.010850694444444444,0,0)" xlink:href="#af"/><use transform="matrix(0.010850694444444444,0,0,0.010850694444444444,15.33203125,0)" xlink:href="#ag"/><use transform="matrix(0.010850694444444444,0,0,0.010850694444444444,29.524739583333332,0)" xlink:href="#ah"/></g><path d="M657 26c-323 0-524-166-541-416h195c15 169 171 246 346 246 202 0 356-106 356-265 5-203-294-238-475-293-239-73-380-191-380-389 0-252 224-419 512-419 294 0 499 171 508 396H992c-17-145-151-228-328-228-193 0-321 102-321 242 0 156 175 211 284 241l149 41c160 44 422 134 422 412 0 244-197 432-541 432" id="ai"/><path d="M628 24c-324 0-524-230-524-574 0-343 198-582 503-582 237 0 487 146 487 559v75H286c9 234 145 362 343 362 132 0 231-58 273-172l174 48C1024-91 857 24 628 24zM287-650h624c-17-190-120-322-304-322-192 0-309 151-320 322" id="aj"/><path d="M158 0v-1118h174v172h12c41-113 157-188 290-188 26 0 70 2 91 3v181c-11-2-60-10-108-10-161 0-279 109-279 260V0H158" id="ak"/><path d="M481 0L54-1118h197c107 314 236 620 325 951 87-331 217-637 324-951h197L670 0H481" id="al"/><g id="e"><use transform="matrix(0.010850694444444444,0,0,0.010850694444444444,0,0)" xlink:href="#ai"/><use transform="matrix(0.010850694444444444,0,0,0.010850694444444444,14.2578125,0)" xlink:href="#aj"/><use transform="matrix(0.010850694444444444,0,0,0.010850694444444444,27.213541666666664,0)" xlink:href="#ak"/><use transform="matrix(0.010850694444444444,0,0,0.010850694444444444,35.92664930555555,0)" xlink:href="#al"/><use transform="matrix(0.010850694444444444,0,0,0.010850694444444444,47.98177083333333,0)" xlink:href="#aj"/><use transform="matrix(0.010850694444444444,0,0,0.010850694444444444,60.937499999999986,0)" xlink:href="#ak"/></g><path fill="#6f7681" d="M180 0v-1490h510c348 0 508 194 508 460 0 198-88 351-276 417L1256 0h-220L726-579c-117 2-238 0-356 1V0H180zm190-747h312c235 0 327-108 327-283 0-177-92-293-329-293H370v576" id="am"/><path fill="#6f7681" d="M140 405l46-156c120 36 205 19 263-150l32-93L54-1118h197c107 313 237 620 324 950 87-331 219-637 326-950h196L606 167c-68 178-176 259-334 259-64 0-113-12-132-21" id="an"/><path fill="#6f7681" d="M538 24C308 24 148-78 108-271l171-41c32 123 123 178 257 178 156 0 256-77 256-169 0-77-54-128-164-154l-186-44c-203-48-300-148-300-305 0-192 176-326 414-326 230 0 351 112 402 269l-163 42c-31-80-94-158-238-158-133 0-233 69-233 162 0 83 57 129 188 160l169 40c203 48 298 149 298 302 0 196-179 339-441 339" id="ao"/><g id="f"><use transform="matrix(0.006510416666666667,0,0,0.006510416666666667,0,0)" xlink:href="#am"/><use transform="matrix(0.006510416666666667,0,0,0.006510416666666667,8.385416666666668,0)" xlink:href="#Z"/><use transform="matrix(0.006510416666666667,0,0,0.006510416666666667,16.158854166666668,0)" xlink:href="#Y"/><use transform="matrix(0.006510416666666667,0,0,0.006510416666666667,19.388020833333336,0)" xlink:href="#W"/><use transform="matrix(0.006510416666666667,0,0,0.006510416666666667,26.6796875,0)" xlink:href="#an"/><use transform="matrix(0.006510416666666667,0,0,0.006510416666666667,34.173177083333336,0)" xlink:href="#ao"/></g><g id="g"><use transform="matrix(0.006510416666666667,0,0,0.006510416666666667,0,0)" xlink:href="#V"/><use transform="matrix(0.006510416666666667,0,0,0.006510416666666667,4.231770833333334,0)" xlink:href="#ad"/></g><path fill="#6f7681" d="M158 0v-1118h180V0H158zm91-1301c-68 0-125-53-125-119s57-119 125-119c69 0 126 53 126 119s-57 119-126 119" id="ap"/><g id="h"><use transform="matrix(0.006510416666666667,0,0,0.006510416666666667,0,0)" xlink:href="#ab"/><use transform="matrix(0.006510416666666667,0,0,0.006510416666666667,7.6171875,0)" xlink:href="#ac"/><use transform="matrix(0.006510416666666667,0,0,0.006510416666666667,15.501302083333334,0)" xlink:href="#W"/><use transform="matrix(0.006510416666666667,0,0,0.006510416666666667,22.98828125,0)" xlink:href="#ap"/><use transform="matrix(0.006510416666666667,0,0,0.006510416666666667,26.217447916666668,0)" xlink:href="#aa"/></g><path fill="#6f7681" d="M657 26c-323 0-524-166-541-416h195c15 169 171 246 346 246 202 0 356-106 356-265 5-203-294-238-475-293-239-73-380-191-380-389 0-252 224-419 512-419 294 0 499 171 508 396H992c-17-145-151-228-328-228-193 0-321 102-321 242 0 156 175 211 284 241l149 41c160 44 422 134 422 412 0 244-197 432-541 432" id="aq"/><g id="i"><use transform="matrix(0.006510416666666667,0,0,0.006510416666666667,0,0)" xlink:href="#aq"/><use transform="matrix(0.006510416666666667,0,0,0.006510416666666667,8.5546875,0)" xlink:href="#Z"/><use transform="matrix(0.006510416666666667,0,0,0.006510416666666667,16.328125,0)" xlink:href="#Z"/><use transform="matrix(0.006510416666666667,0,0,0.006510416666666667,24.1015625,0)" xlink:href="#ao"/></g><g id="j"><use transform="matrix(0.006510416666666667,0,0,0.006510416666666667,0,0)" xlink:href="#ad"/><use transform="matrix(0.006510416666666667,0,0,0.006510416666666667,7.994791666666667,0)" xlink:href="#aa"/><use transform="matrix(0.006510416666666667,0,0,0.006510416666666667,15.872395833333334,0)" xlink:href="#Y"/><use transform="matrix(0.006510416666666667,0,0,0.006510416666666667,19.166666666666668,0)" xlink:href="#an"/></g><path fill="#6f7681" d="M158 418v-1536h174v179h20c37-59 106-193 324-193 279 0 474 222 474 576 0 356-194 580-473 580-213 0-288-135-325-197h-14v591H158zm492-555c209 0 317-186 317-421 0-232-105-413-317-413-206 0-314 166-314 413 0 249 111 421 314 421" id="ar"/><path fill="#6f7681" d="M577 24c-279 0-473-224-473-580 0-354 195-576 474-576 218 0 287 134 324 193h14v-551h180V0H922v-173h-20C865-111 790 24 577 24zm27-161c203 0 314-172 314-421 0-247-108-413-314-413-212 0-317 181-317 413 0 235 108 421 317 421" id="as"/><g id="k"><use transform="matrix(0.006510416666666667,0,0,0.006510416666666667,0,0)" xlink:href="#Z"/><use transform="matrix(0.006510416666666667,0,0,0.006510416666666667,7.7734375,0)" xlink:href="#aa"/><use transform="matrix(0.006510416666666667,0,0,0.006510416666666667,15.651041666666668,0)" xlink:href="#ab"/><use transform="matrix(0.006510416666666667,0,0,0.006510416666666667,23.268229166666668,0)" xlink:href="#ae"/><use transform="matrix(0.006510416666666667,0,0,0.006510416666666667,28.49609375,0)" xlink:href="#ac"/><use transform="matrix(0.006510416666666667,0,0,0.006510416666666667,36.184895833333336,0)" xlink:href="#an"/><use transform="matrix(0.006510416666666667,0,0,0.006510416666666667,43.67838541666667,0)" xlink:href="#ar"/><use transform="matrix(0.006510416666666667,0,0,0.006510416666666667,51.84244791666667,0)" xlink:href="#V"/><use transform="matrix(0.006510416666666667,0,0,0.006510416666666667,56.07421875,0)" xlink:href="#Z"/><use transform="matrix(0.006510416666666667,0,0,0.006510416666666667,63.84765625,0)" xlink:href="#as"/></g><g id="l"><use transform="matrix(0.006510416666666667,0,0,0.006510416666666667,0,0)" xlink:href="#as"/><use transform="matrix(0.006510416666666667,0,0,0.006510416666666667,8.1640625,0)" xlink:href="#W"/><use transform="matrix(0.006510416666666667,0,0,0.006510416666666667,15.651041666666668,0)" xlink:href="#V"/><use transform="matrix(0.006510416666666667,0,0,0.006510416666666667,20.078125,0)" xlink:href="#W"/></g><path d="M600 0L52-1490h200c166 485 304 806 458 1336 156-533 285-846 449-1336h202L819 0H600" id="at"/><path d="M678-1118v154H420V0H240v-964H20v-154h220v-149c0-194 155-293 318-293 85 0 141 18 168 30l-50 154c-19-6-47-17-97-17-111 0-159 58-159 166v109h258" id="au"/><path d="M598-1118v154H368v674c0 100 37 144 132 144 23 0 62-6 92-12L629-6c-37 13-88 20-134 20-193 0-307-107-307-290v-688H20v-154h168v-266h180v266h230" id="av"/><g id="m"><use transform="matrix(0.010850694444444444,0,0,0.010850694444444444,0,0)" xlink:href="#at"/><use transform="matrix(0.010850694444444444,0,0,0.010850694444444444,14.20355902777778,0)" xlink:href="#aj"/><use transform="matrix(0.010850694444444444,0,0,0.010850694444444444,27.159288194444443,0)" xlink:href="#ak"/><use transform="matrix(0.010850694444444444,0,0,0.010850694444444444,35.87239583333333,0)" xlink:href="#P"/><use transform="matrix(0.010850694444444444,0,0,0.010850694444444444,41.25434027777777,0)" xlink:href="#au"/><use transform="matrix(0.010850694444444444,0,0,0.010850694444444444,49.47916666666666,0)" xlink:href="#P"/><use transform="matrix(0.010850694444444444,0,0,0.010850694444444444,54.8611111111111,0)" xlink:href="#M"/><use transform="matrix(0.010850694444444444,0,0,0.010850694444444444,67.77343749999999,0)" xlink:href="#Q"/><use transform="matrix(0.010850694444444444,0,0,0.010850694444444444,80.2517361111111,0)" xlink:href="#av"/><use transform="matrix(0.010850694444444444,0,0,0.010850694444444444,87.52170138888887,0)" xlink:href="#P"/><use transform="matrix(0.010850694444444444,0,0,0.010850694444444444,92.90364583333331,0)" xlink:href="#L"/><use transform="matrix(0.010850694444444444,0,0,0.010850694444444444,106.22829861111109,0)" xlink:href="#R"/></g><path d="M458 0L52-1490h194c108 439 233 855 324 1313 92-459 221-873 331-1313h216c110 438 234 854 330 1307 92-455 216-869 323-1307h196L1558 0h-221l-256-944c-26-95-50-200-73-331-22 122-44 223-73 331L680 0H458" id="aw"/><path d="M677 24c-213 0-288-135-325-197h-20V0H158v-1490h180v551h14c37-59 106-193 324-193 279 0 474 222 474 576 0 356-194 580-473 580zm-27-161c209 0 317-186 317-421 0-232-105-413-317-413-206 0-314 166-314 413 0 249 111 421 314 421" id="ax"/><g id="n"><use transform="matrix(0.010850694444444444,0,0,0.010850694444444444,0,0)" xlink:href="#aw"/><use transform="matrix(0.010850694444444444,0,0,0.010850694444444444,20.768229166666668,0)" xlink:href="#aj"/><use transform="matrix(0.010850694444444444,0,0,0.010850694444444444,33.723958333333336,0)" xlink:href="#ax"/></g><path fill="#6f7681" d="M645 0H180v-1490h484c435 0 692 280 692 742 0 466-257 748-711 748zM370-168h263c363 0 539-218 539-580 0-358-176-574-521-574H370v1154" id="ay"/><g id="o"><use transform="matrix(0.006510416666666667,0,0,0.006510416666666667,0,0)" xlink:href="#ay"/><use transform="matrix(0.006510416666666667,0,0,0.006510416666666667,9.622395833333334,0)" xlink:href="#Z"/><use transform="matrix(0.006510416666666667,0,0,0.006510416666666667,17.395833333333336,0)" xlink:href="#ab"/><use transform="matrix(0.006510416666666667,0,0,0.006510416666666667,25.013020833333336,0)" xlink:href="#ae"/><use transform="matrix(0.006510416666666667,0,0,0.006510416666666667,30.240885416666668,0)" xlink:href="#an"/><use transform="matrix(0.006510416666666667,0,0,0.006510416666666667,37.734375,0)" xlink:href="#ar"/><use transform="matrix(0.006510416666666667,0,0,0.006510416666666667,45.8984375,0)" xlink:href="#V"/><use transform="matrix(0.006510416666666667,0,0,0.006510416666666667,50.13020833333333,0)" xlink:href="#ao"/></g><g id="p"><use transform="matrix(0.006510416666666667,0,0,0.006510416666666667,0,0)" xlink:href="#ap"/><use transform="matrix(0.006510416666666667,0,0,0.006510416666666667,3.229166666666667,0)" xlink:href="#aa"/></g><path fill="#6f7681" d="M409 0L70-1118h191c89 329 165 560 243 925 75-353 154-601 240-925h192c85 325 161 564 235 922 77-354 157-598 244-922h191L1267 0h-179c-86-307-176-590-250-913C763-588 675-308 588 0H409" id="az"/><g id="q"><use transform="matrix(0.006510416666666667,0,0,0.006510416666666667,0,0)" xlink:href="#X"/><use transform="matrix(0.006510416666666667,0,0,0.006510416666666667,8.1640625,0)" xlink:href="#ae"/><use transform="matrix(0.006510416666666667,0,0,0.006510416666666667,12.962239583333332,0)" xlink:href="#ad"/><use transform="matrix(0.006510416666666667,0,0,0.006510416666666667,20.716145833333332,0)" xlink:href="#az"/><use transform="matrix(0.006510416666666667,0,0,0.006510416666666667,31.62760416666666,0)" xlink:href="#ao"/><use transform="matrix(0.006510416666666667,0,0,0.006510416666666667,38.66536458333333,0)" xlink:href="#Z"/><use transform="matrix(0.006510416666666667,0,0,0.006510416666666667,46.43880208333333,0)" xlink:href="#ae"/></g><path fill="#6f7681" d="M180 0v-1490h190c0 262 1 526-3 784 217-279 467-523 702-784h249L716-845 1319 0h-225L585-716 370-489V0H180" id="aA"/><g id="r"><use transform="matrix(0.006510416666666667,0,0,0.006510416666666667,0,0)" xlink:href="#aA"/><use transform="matrix(0.006510416666666667,0,0,0.006510416666666667,8.430989583333334,0)" xlink:href="#Z"/><use transform="matrix(0.006510416666666667,0,0,0.006510416666666667,15.944010416666668,0)" xlink:href="#an"/></g><path fill="#6f7681" d="M481 0L54-1118h197c107 314 236 620 325 951 87-331 217-637 324-951h197L670 0H481" id="aB"/><g id="s"><use transform="matrix(0.006510416666666667,0,0,0.006510416666666667,0,0)" xlink:href="#aa"/><use transform="matrix(0.006510416666666667,0,0,0.006510416666666667,7.877604166666667,0)" xlink:href="#Z"/><use transform="matrix(0.006510416666666667,0,0,0.006510416666666667,15.390625,0)" xlink:href="#aB"/><use transform="matrix(0.006510416666666667,0,0,0.006510416666666667,22.623697916666668,0)" xlink:href="#Z"/><use transform="matrix(0.006510416666666667,0,0,0.006510416666666667,30.397135416666668,0)" xlink:href="#ae"/></g><g id="t"><use transform="matrix(0.006510416666666667,0,0,0.006510416666666667,0,0)" xlink:href="#Y"/><use transform="matrix(0.006510416666666667,0,0,0.006510416666666667,3.229166666666667,0)" xlink:href="#Z"/><use transform="matrix(0.006510416666666667,0,0,0.006510416666666667,11.1328125,0)" xlink:href="#W"/><use transform="matrix(0.006510416666666667,0,0,0.006510416666666667,18.424479166666668,0)" xlink:href="#aB"/><use transform="matrix(0.006510416666666667,0,0,0.006510416666666667,25.657552083333336,0)" xlink:href="#Z"/><use transform="matrix(0.006510416666666667,0,0,0.006510416666666667,33.430989583333336,0)" xlink:href="#ao"/></g><g id="u"><use transform="matrix(0.006510416666666667,0,0,0.006510416666666667,0,0)" xlink:href="#ab"/><use transform="matrix(0.006510416666666667,0,0,0.006510416666666667,7.6171875,0)" xlink:href="#Y"/><use transform="matrix(0.006510416666666667,0,0,0.006510416666666667,10.846354166666668,0)" xlink:href="#ap"/><use transform="matrix(0.006510416666666667,0,0,0.006510416666666667,14.075520833333337,0)" xlink:href="#Z"/><use transform="matrix(0.006510416666666667,0,0,0.006510416666666667,21.848958333333336,0)" xlink:href="#aa"/><use transform="matrix(0.006510416666666667,0,0,0.006510416666666667,29.7265625,0)" xlink:href="#V"/></g><path d="M645 0H180v-1490h484c435 0 692 280 692 742 0 466-257 748-711 748zM370-168h263c363 0 539-218 539-580 0-358-176-574-521-574H370v1154" id="aC"/><path d="M538 24C308 24 148-78 108-271l171-41c32 123 123 178 257 178 156 0 256-77 256-169 0-77-54-128-164-154l-186-44c-203-48-300-148-300-305 0-192 176-326 414-326 230 0 351 112 402 269l-163 42c-31-80-94-158-238-158-133 0-233 69-233 162 0 83 57 129 188 160l169 40c203 48 298 149 298 302 0 196-179 339-441 339" id="aD"/><path d="M158 418v-1536h174v179h20c37-59 106-193 324-193 279 0 474 222 474 576 0 356-194 580-473 580-213 0-288-135-325-197h-14v591H158zm492-555c209 0 317-186 317-421 0-232-105-413-317-413-206 0-314 166-314 413 0 249 111 421 314 421" id="aE"/><g id="v"><use transform="matrix(0.010850694444444444,0,0,0.010850694444444444,0,0)" xlink:href="#aC"/><use transform="matrix(0.010850694444444444,0,0,0.010850694444444444,16.03732638888889,0)" xlink:href="#aj"/><use transform="matrix(0.010850694444444444,0,0,0.010850694444444444,28.99305555555556,0)" xlink:href="#aD"/><use transform="matrix(0.010850694444444444,0,0,0.010850694444444444,40.72265625,0)" xlink:href="#N"/><use transform="matrix(0.010850694444444444,0,0,0.010850694444444444,52.91883680555556,0)" xlink:href="#av"/><use transform="matrix(0.010850694444444444,0,0,0.010850694444444444,59.97178819444445,0)" xlink:href="#L"/><use transform="matrix(0.010850694444444444,0,0,0.010850694444444444,73.29644097222223,0)" xlink:href="#aE"/></g><g id="w"><use transform="matrix(0.010850694444444444,0,0,0.010850694444444444,0,0)" xlink:href="#af"/><use transform="matrix(0.010850694444444444,0,0,0.010850694444444444,15.33203125,0)" xlink:href="#aE"/><use transform="matrix(0.010850694444444444,0,0,0.010850694444444444,28.938802083333332,0)" xlink:href="#aE"/></g><path fill="#6f7681" d="M611 442c-248 0-391-105-460-228l146-94c47 65 117 165 314 165 178 0 307-82 307-266v-224h-17C863-141 792-18 576-18c-268 0-472-195-472-546 0-346 197-568 476-568 216 0 288 133 326 193h17v-179h175V29c0 289-215 413-487 413zm-5-620c203 0 314-146 314-390 0-237-108-403-314-403-213 0-319 180-319 403 0 230 109 390 319 390" id="aF"/><g id="x"><use transform="matrix(0.006510416666666667,0,0,0.006510416666666667,0,0)" xlink:href="#aq"/><use transform="matrix(0.006510416666666667,0,0,0.006510416666666667,8.5546875,0)" xlink:href="#ap"/><use transform="matrix(0.006510416666666667,0,0,0.006510416666666667,11.783854166666668,0)" xlink:href="#aF"/><use transform="matrix(0.006510416666666667,0,0,0.006510416666666667,19.9609375,0)" xlink:href="#aa"/><use transform="matrix(0.006510416666666667,0,0,0.006510416666666667,27.838541666666668,0)" xlink:href="#ao"/></g><g id="y"><use transform="matrix(0.006510416666666667,0,0,0.006510416666666667,0,0)" xlink:href="#Y"/><use transform="matrix(0.006510416666666667,0,0,0.006510416666666667,3.229166666666667,0)" xlink:href="#ad"/><use transform="matrix(0.006510416666666667,0,0,0.006510416666666667,11.223958333333334,0)" xlink:href="#ab"/><use transform="matrix(0.006510416666666667,0,0,0.006510416666666667,18.971354166666668,0)" xlink:href="#W"/><use transform="matrix(0.006510416666666667,0,0,0.006510416666666667,26.458333333333336,0)" xlink:href="#Y"/><use transform="matrix(0.006510416666666667,0,0,0.006510416666666667,29.6875,0)" xlink:href="#Y"/><use transform="matrix(0.006510416666666667,0,0,0.006510416666666667,32.981770833333336,0)" xlink:href="#an"/></g><path fill="#6f7681" d="M180 0v-1490h510c348 0 508 209 508 474 0 266-160 477-507 477H370V0H180zm190-706h312c236 0 327-133 327-310 0-176-91-307-329-307H370v617" id="aG"/><path fill="#6f7681" d="M180 0v-1490h901v168H370v510h643v168H370V0H180" id="aH"/><g id="z"><use transform="matrix(0.006510416666666667,0,0,0.006510416666666667,0,0)" xlink:href="#aG"/><use transform="matrix(0.006510416666666667,0,0,0.006510416666666667,8.515625,0)" xlink:href="#ay"/><use transform="matrix(0.006510416666666667,0,0,0.006510416666666667,18.138020833333336,0)" xlink:href="#aH"/></g><g id="A"><use transform="matrix(0.006510416666666667,0,0,0.006510416666666667,0,0)" xlink:href="#ao"/><use transform="matrix(0.006510416666666667,0,0,0.006510416666666667,7.037760416666667,0)" xlink:href="#V"/><use transform="matrix(0.006510416666666667,0,0,0.006510416666666667,11.46484375,0)" xlink:href="#W"/><use transform="matrix(0.006510416666666667,0,0,0.006510416666666667,18.756510416666668,0)" xlink:href="#an"/><use transform="matrix(0.006510416666666667,0,0,0.006510416666666667,26.25,0)" xlink:href="#ao"/><use transform="matrix(0.006510416666666667,0,0,0.006510416666666667,33.287760416666664,0)" xlink:href="#ad"/><use transform="matrix(0.006510416666666667,0,0,0.006510416666666667,41.28255208333333,0)" xlink:href="#aa"/></g><g id="B"><use transform="matrix(0.006510416666666667,0,0,0.006510416666666667,0,0)" xlink:href="#T"/><use transform="matrix(0.006510416666666667,0,0,0.006510416666666667,11.6796875,0)" xlink:href="#W"/><use transform="matrix(0.006510416666666667,0,0,0.006510416666666667,19.166666666666668,0)" xlink:href="#ab"/><use transform="matrix(0.006510416666666667,0,0,0.006510416666666667,26.783854166666668,0)" xlink:href="#ac"/><use transform="matrix(0.006510416666666667,0,0,0.006510416666666667,34.66796875,0)" xlink:href="#ap"/><use transform="matrix(0.006510416666666667,0,0,0.006510416666666667,37.897135416666664,0)" xlink:href="#aa"/><use transform="matrix(0.006510416666666667,0,0,0.006510416666666667,45.77473958333333,0)" xlink:href="#Z"/></g><path d="M87 0l247-1490h218l448 953c25 54 80 176 129 327 11-149 33-280 47-366l151-914h190L1270 0h-219C841-464 670-765 473-1275 414-753 352-475 278 0H87" id="aI"/><path d="M528 24C258 24 94-156 94-433c0-355 229-699 603-699 270 0 436 178 436 458 0 359-234 698-605 698zm4-161c275 0 420-287 420-533 0-170-77-301-260-301-271 0-418 288-418 536 0 168 77 298 258 298" id="aJ"/><g id="C"><use transform="matrix(0.008680555555555556,0,0,0.008680555555555556,0,0)" xlink:href="#aI"/><use transform="matrix(0.008680555555555556,0,0,0.008680555555555556,13.394097222222223,0)" xlink:href="#aJ"/></g><path d="M451 24C217 22 71-78 61-277l174-29c11 123 90 172 219 172 161 0 280-83 297-181 11-71-30-117-135-143l-179-44c-195-48-280-153-253-316 31-186 223-314 455-314 233 4 337 107 366 275l-165 30c-18-80-65-152-204-152-138 0-256 75-272 174-13 77 32 118 158 149l162 40c195 48 278 154 252 313C904-113 708 24 451 24" id="aK"/><path d="M66 0l185-1118h180L246 0H66zm307-1301c-71 0-117-55-106-119s74-119 145-119c65 0 117 50 106 118s-78 120-145 120" id="aL"/><path d="M356-664L245 0H65l186-1118h173l-32 197c96-152 219-211 366-211 232 0 366 145 319 428L960 0H779l117-701c29-174-48-269-198-269-165 0-310 115-342 306" id="aM"/><path d="M456 442C197 442 73 327 25 209l155-84c33 60 86 160 280 160 184 0 332-89 363-272l37-218-16 4C793-134 707-18 498-18 260-18 96-170 96-443c0-341 216-689 568-689 222 0 274 139 301 198l21-5 30-179h175L999 35c-48 288-275 407-543 407zm75-620c274 0 401-267 401-512 0-170-80-281-247-281-260 0-408 269-408 518 0 167 83 275 254 275" id="aN"/><path d="M492-1490L245 0H65l247-1490h180" id="aO"/><path d="M535 24C259 24 94-144 94-427c0-392 272-715 610-715 216 0 356 119 356 305 0 244-237 344-790 350-18 199 49 349 276 352 142 0 260-66 317-173l167 47C947-85 756 24 535 24zM294-623c447-4 586-57 586-218 0-85-78-141-194-141-220 0-342 177-392 359" id="aP"/><g id="D"><use transform="matrix(0.008680555555555556,0,0,0.008680555555555556,0,0)" xlink:href="#aK"/><use transform="matrix(0.008680555555555556,0,0,0.008680555555555556,9.375,0)" xlink:href="#aL"/><use transform="matrix(0.008680555555555556,0,0,0.008680555555555556,13.689236111111109,0)" xlink:href="#aM"/><use transform="matrix(0.008680555555555556,0,0,0.008680555555555556,24.20138888888889,0)" xlink:href="#aN"/><use transform="matrix(0.008680555555555556,0,0,0.008680555555555556,35.10416666666667,0)" xlink:href="#aO"/><use transform="matrix(0.008680555555555556,0,0,0.008680555555555556,39.40972222222223,0)" xlink:href="#aP"/></g><path d="M528 24C258 24 94-156 94-433c0-354 228-699 603-699 222 0 381 120 410 314l-176 39c-14-114-95-192-238-192-272 0-419 288-419 536 0 167 76 298 258 298 155 0 277-90 329-211l166 58C935-93 745 24 528 24" id="aQ"/><path d="M65 0l186-1118h175l-31 195c80-148 212-215 337-215 153 0 236 96 255 228 75-143 223-228 382-228 199 0 341 131 298 390L1543 0h-181l126-756c27-162-65-218-177-218-160 0-274 111-297 250L894 0H714l128-773c21-127-57-201-174-201-136 0-277 97-307 277L245 0H65" id="aR"/><path d="M-4 418l255-1536h174l-30 179h9c47-68 143-193 355-193 246 0 401 170 401 447 0 348-211 709-568 709-219 0-274-140-300-202h-17l-99 596H-4zm572-555c267 0 411-296 411-543 0-170-78-291-250-291-269 0-405 284-405 542 0 177 81 292 244 292" id="aS"/><path d="M691-1118l-25 154H437L325-290c-17 103 16 144 108 144 23 0 63-6 94-12L538-6c-36 12-87 20-136 20-196 0-290-109-260-290l114-688H88l25-154h169l44-266h180l-44 266h229" id="aT"/><g id="E"><use transform="matrix(0.008680555555555556,0,0,0.008680555555555556,0,0)" xlink:href="#aQ"/><use transform="matrix(0.008680555555555556,0,0,0.008680555555555556,10.164930555555555,0)" xlink:href="#aJ"/><use transform="matrix(0.008680555555555556,0,0,0.008680555555555556,20.833333333333336,0)" xlink:href="#aR"/><use transform="matrix(0.008680555555555556,0,0,0.008680555555555556,36.40625,0)" xlink:href="#aS"/><use transform="matrix(0.008680555555555556,0,0,0.008680555555555556,47.30034722222222,0)" xlink:href="#aJ"/><use transform="matrix(0.008680555555555556,0,0,0.008680555555555556,57.96875,0)" xlink:href="#aM"/><use transform="matrix(0.008680555555555556,0,0,0.008680555555555556,68.48090277777777,0)" xlink:href="#aP"/><use transform="matrix(0.008680555555555556,0,0,0.008680555555555556,78.71527777777777,0)" xlink:href="#aM"/><use transform="matrix(0.008680555555555556,0,0,0.008680555555555556,89.22743055555554,0)" xlink:href="#aT"/></g><path d="M356-670L245 0H65l247-1490h180l-94 565c97-150 219-207 362-207 226 0 365 139 318 422L960 0H779l116-695c29-174-53-275-208-275-158 0-299 107-331 300" id="aU"/><path d="M492 24C248 24 94-147 94-425c0-352 212-707 569-707 222 0 274 136 303 198h12l92-556h181L1004 0H829l30-173h-19C792-103 700 24 492 24zm32-161c268 0 407-295 407-549 0-175-80-285-247-285-266 0-408 283-408 536 0 174 79 298 248 298" id="aV"/><g id="F"><use transform="matrix(0.008680555555555556,0,0,0.008680555555555556,0,0)" xlink:href="#aU"/><use transform="matrix(0.008680555555555556,0,0,0.008680555555555556,10.512152777777779,0)" xlink:href="#aJ"/><use transform="matrix(0.008680555555555556,0,0,0.008680555555555556,21.180555555555557,0)" xlink:href="#aO"/><use transform="matrix(0.008680555555555556,0,0,0.008680555555555556,25.486111111111118,0)" xlink:href="#aV"/><use transform="matrix(0.008680555555555556,0,0,0.008680555555555556,36.380208333333336,0)" xlink:href="#aK"/></g><path d="M481 24C202 24 45-202 104-557s293-575 571-575c216 0 263 132 291 193h15l29-179h181L1006 0H831l28-173h-21C788-107 693 24 481 24zm56-161c204 0 342-174 383-422s-41-412-245-412c-215 0-350 183-388 412-39 235 39 422 250 422" id="aW"/><g id="G"><use transform="matrix(0.008680555555555556,0,0,0.008680555555555556,0,0)" xlink:href="#aW"/><use transform="matrix(0.008680555555555556,0,0,0.008680555555555556,10.911458333333334,0)" xlink:href="#aO"/><use transform="matrix(0.008680555555555556,0,0,0.008680555555555556,15.21701388888889,0)" xlink:href="#aO"/></g><g id="H"><use transform="matrix(0.008680555555555556,0,0,0.008680555555555556,0,0)" xlink:href="#aT"/><use transform="matrix(0.008680555555555556,0,0,0.008680555555555556,5.833333333333334,0)" xlink:href="#aU"/><use transform="matrix(0.008680555555555556,0,0,0.008680555555555556,16.345486111111114,0)" xlink:href="#aP"/></g><path d="M66 0l185-1118h174l-28 172h12c78-136 219-209 411-185l-30 181c-211-47-398 67-428 250L246 0H66" id="aX"/><path d="M443 14C219 14 87-123 134-408l117-710h180L317-423c-28 171 49 275 206 275s300-105 332-300l110-670h181L961 0H787l35-209C722-47 590 14 443 14" id="aY"/><g id="I"><use transform="matrix(0.008680555555555556,0,0,0.008680555555555556,0,0)" xlink:href="#aT"/><use transform="matrix(0.008680555555555556,0,0,0.008680555555555556,5.833333333333334,0)" xlink:href="#aX"/><use transform="matrix(0.008680555555555556,0,0,0.008680555555555556,12.534722222222223,0)" xlink:href="#aY"/><use transform="matrix(0.008680555555555556,0,0,0.008680555555555556,23.055555555555557,0)" xlink:href="#aK"/><use transform="matrix(0.008680555555555556,0,0,0.008680555555555556,32.43055555555556,0)" xlink:href="#aT"/></g></defs></g></svg>