<svg xmlns="http://www.w3.org/2000/svg" xmlns:xlink="http://www.w3.org/1999/xlink" xmlns:lucid="lucid" width="932.46" height="781"><g transform="translate(320.5 1280.5)" lucid:page-tab-id="0_0"><path d="M-320-1274a6 6 0 0 1 6-6h123.06a6 6 0 0 1 6 6v88a6 6 0 0 1-6 6H-314a6 6 0 0 1-6-6z" stroke="#635dff" fill="#f2f2ff"/><use xlink:href="#a" transform="matrix(1,0,0,1,-320,-1280) translate(20.673402777777774 59.02777777777778)"/><use xlink:href="#b" transform="matrix(1,0,0,1,-320,-1280) translate(58.21680555555555 59.02777777777778)"/><path d="M-252.47-1179v2m0 4.02v4.02m0 4v4.02m0 4.02v4m0 4.02v4.02m0 4v4.03m0 4v4.02m0 4.02v4m0 4v4.03m0 4v4.03m0 4v4.03m0 4v4m0 4.03v4m0 4.02v4.02m0 4v4.03m0 4v4.02m0 4.02v4m0 4.02v4.02m0 4v4.03m0 4.02v4.02m0 4v4.02m0 4.02v4m0 4.02v4.02m0 4v4.03m0 4v4.02m0 4.02v4m0 4v4.03m0 4v4.03m0 4v4.02m0 4.02v4m0 4.03v4m0 4.02v4.02m0 4v4.03m0 4v4.02m0 4.02v4m0 4.02v4.02m0 4v4.03m0 4.02v4m0 4.03v4m0 4.03v4m0 4.02v4.02m0 4v4.03m0 4v4.02m0 4.02v4m0 4v4.03m0 4v4.03m0 4v4.02m0 4.02v4m0 4.03v4m0 4.02v4.02m0 4v4.03m0 4v4.02m0 4.02v4m0 4.02v4.02m0 4v4.03m0 4.02v4m0 4.03v4m0 4.03v4m0 4.02v4.02m0 4v4.03m0 4v4.02m0 4.02v4m0 4v4.03m0 4v4.03m0 4v4.02m0 4.02v4m0 4.03v4m0 4.02v4.02m0 4v4.03m0 4v4.02m0 4.02v4m0 4.02v4.02m0 4v2.02" stroke="#635dff" fill="none"/><path d="M-252-1179h-.94v-.5h.94zM-252-600.5h-.94v-.5h.94z" stroke="#635dff" stroke-width=".05" fill="#635dff"/><path d="M-.9-1179v2m0 4.02v4.02m0 4v4.02m0 4.02v4m0 4.02v4.02m0 4v4.03m0 4v4.02m0 4.02v4m0 4v4.03m0 4v4.03m0 4v4.03m0 4v4m0 4.03v4m0 4.02v4.02m0 4v4.03m0 4v4.02m0 4.02v4m0 4.02v4.02m0 4v4.03m0 4.02v4.02m0 4v4.02m0 4.02v4m0 4.02v4.02m0 4v4.03m0 4v4.02m0 4.02v4m0 4v4.03m0 4v4.03m0 4v4.02m0 4.02v4m0 4.03v4m0 4.02v4.02m0 4v4.03m0 4v4.02m0 4.02v4m0 4.02v4.02m0 4v4.03m0 4.02v4m0 4.03v4m0 4.03v4m0 4.02v4.02m0 4v4.03m0 4v4.02m0 4.02v4m0 4v4.03m0 4v4.03m0 4v4.02m0 4.02v4m0 4.03v4m0 4.02v4.02m0 4v4.03m0 4v4.02m0 4.02v4m0 4.02v4.02m0 4v4.03m0 4.02v4m0 4.03v4m0 4.03v4m0 4.02v4.02m0 4v4.03m0 4v4.02m0 4.02v4m0 4v4.03m0 4v4.03m0 4v4.02m0 4.02v4m0 4.03v4m0 4.02v4.02m0 4v4.03m0 4v4.02m0 4.02v4m0 4.02v4.02m0 4v2.02" stroke="#635dff" fill="none"/><path d="M-.42-1179h-.95v-.5h.95zM-.42-600.5h-.95v-.5h.95z" stroke="#635dff" stroke-width=".05" fill="#635dff"/><path d="M259.38-1179v2m0 4.02v4.02m0 4v4.02m0 4.02v4m0 4.02v4.02m0 4v4.03m0 4v4.02m0 4.02v4m0 4v4.03m0 4v4.03m0 4v4.03m0 4v4m0 4.03v4m0 4.02v4.02m0 4v4.03m0 4v4.02m0 4.02v4m0 4.02v4.02m0 4v4.03m0 4.02v4.02m0 4v4.02m0 4.02v4m0 4.02v4.02m0 4v4.03m0 4v4.02m0 4.02v4m0 4v4.03m0 4v4.03m0 4v4.02m0 4.02v4m0 4.03v4m0 4.02v4.02m0 4v4.03m0 4v4.02m0 4.02v4m0 4.02v4.02m0 4v4.03m0 4.02v4m0 4.03v4m0 4.03v4m0 4.02v4.02m0 4v4.03m0 4v4.02m0 4.02v4m0 4v4.03m0 4v4.03m0 4v4.02m0 4.02v4m0 4.03v4m0 4.02v4.02m0 4v4.03m0 4v4.02m0 4.02v4m0 4.02v4.02m0 4v4.03m0 4.02v4m0 4.03v4m0 4.03v4m0 4.02v4.02m0 4v4.03m0 4v4.02m0 4.02v4m0 4v4.03m0 4v4.03m0 4v4.02m0 4.02v4m0 4.03v4m0 4.02v4.02m0 4v4.03m0 4v4.02m0 4.02v4m0 4.02v4.02m0 4v2.02" stroke="#635dff" fill="none"/><path d="M259.85-1179h-.95v-.5h.95zM259.85-600.5h-.95v-.5h.95z" stroke="#635dff" stroke-width=".05" fill="#635dff"/><path d="M533.53-1179v2m0 4.02v4.02m0 4v4.02m0 4.02v4m0 4.02v4.02m0 4v4.03m0 4v4.02m0 4.02v4m0 4v4.03m0 4v4.03m0 4v4.03m0 4v4m0 4.03v4m0 4.02v4.02m0 4v4.03m0 4v4.02m0 4.02v4m0 4.02v4.02m0 4v4.03m0 4.02v4.02m0 4v4.02m0 4.02v4m0 4.02v4.02m0 4v4.03m0 4v4.02m0 4.02v4m0 4v4.03m0 4v4.03m0 4v4.02m0 4.02v4m0 4.03v4m0 4.02v4.02m0 4v4.03m0 4v4.02m0 4.02v4m0 4.02v4.02m0 4v4.03m0 4.02v4m0 4.03v4m0 4.03v4m0 4.02v4.02m0 4v4.03m0 4v4.02m0 4.02v4m0 4v4.03m0 4v4.03m0 4v4.02m0 4.02v4m0 4.03v4m0 4.02v4.02m0 4v4.03m0 4v4.02m0 4.02v4m0 4.02v4.02m0 4v4.03m0 4.02v4m0 4.03v4m0 4.03v4m0 4.02v4.02m0 4v4.03m0 4v4.02m0 4.02v4m0 4v4.03m0 4v4.03m0 4v4.02m0 4.02v4m0 4.03v4m0 4.02v4.02m0 4v4.03m0 4v4.02m0 4.02v4m0 4.02v4.02m0 4v2.02" stroke="#635dff" fill="none"/><path d="M534-1179h-.95v-.5h.96zM534-600.5h-.95v-.5h.96z" stroke="#635dff" stroke-width=".05" fill="#635dff"/><path d="M-320-594a6 6 0 0 1 6-6h123.06a6 6 0 0 1 6 6v88a6 6 0 0 1-6 6H-314a6 6 0 0 1-6-6z" stroke="#635dff" fill="#f2f2ff"/><use xlink:href="#a" transform="matrix(1,0,0,1,-320,-600) translate(20.673402777777774 59.02777777777778)"/><use xlink:href="#b" transform="matrix(1,0,0,1,-320,-600) translate(58.21680555555555 59.02777777777778)"/><path d="M-64.94-1274a6 6 0 0 1 6-6h116.1a6 6 0 0 1 6 6v88a6 6 0 0 1-6 6h-116.1a6 6 0 0 1-6-6z" stroke="#635dff" fill="#f2f2ff"/><use xlink:href="#c" transform="matrix(1,0,0,1,-64.93923611111109,-1280) translate(20.65647569444444 59.02777777777778)"/><path d="M-64.94-594a6 6 0 0 1 6-6h116.1a6 6 0 0 1 6 6v88a6 6 0 0 1-6 6h-116.1a6 6 0 0 1-6-6z" stroke="#635dff" fill="#f2f2ff"/><use xlink:href="#c" transform="matrix(1,0,0,1,-64.93923611111109,-600) translate(20.65647569444444 59.02777777777778)"/><path d="M183.16-1274a6 6 0 0 1 6-6H329.6a6 6 0 0 1 6 6v88a6 6 0 0 1-6 6H189.15a6 6 0 0 1-6-6z" stroke="#635dff" fill="#f2f2ff"/><use xlink:href="#d" transform="matrix(1,0,0,1,183.15538194444449,-1280) translate(20.48199652777778 59.02777777777778)"/><use xlink:href="#e" transform="matrix(1,0,0,1,183.15538194444449,-1280) translate(62.22461805555556 59.02777777777778)"/><path d="M183.16-594a6 6 0 0 1 6-6H329.6a6 6 0 0 1 6 6v88a6 6 0 0 1-6 6H189.15a6 6 0 0 1-6-6z" stroke="#635dff" fill="#f2f2ff"/><use xlink:href="#d" transform="matrix(1,0,0,1,183.15538194444449,-600) translate(20.48199652777778 59.02777777777778)"/><use xlink:href="#e" transform="matrix(1,0,0,1,183.15538194444449,-600) translate(62.22461805555556 59.02777777777778)"/><path d="M455.6-1274a6 6 0 0 1 6-6h143.86a6 6 0 0 1 6 6v88a6 6 0 0 1-6 6H461.6a6 6 0 0 1-6-6z" stroke="#635dff" fill="#f2f2ff"/><use xlink:href="#f" transform="matrix(1,0,0,1,455.59895833333326,-1280) translate(20.773012152777774 59.02777777777778)"/><path d="M455.6-594a6 6 0 0 1 6-6h143.86a6 6 0 0 1 6 6v88a6 6 0 0 1-6 6H461.6a6 6 0 0 1-6-6z" stroke="#635dff" fill="#f2f2ff"/><use xlink:href="#f" transform="matrix(1,0,0,1,455.59895833333326,-600) translate(20.773012152777774 59.02777777777778)"/><path d="M-251.97-1119.6h222.53M-251.96-1119.6h-.5M-38.32-1129.6l17.32 10-17.32 10m17.32-10h-8.5" stroke="#635dff" fill="none"/><use xlink:href="#g" transform="matrix(1,0,0,1,-237.88194444444443,-1149.7363004310341) translate(0 12.916666666666668)"/><use xlink:href="#h" transform="matrix(1,0,0,1,-237.88194444444443,-1149.7363004310341) translate(29.791666666666668 12.916666666666668)"/><use xlink:href="#i" transform="matrix(1,0,0,1,-237.88194444444443,-1149.7363004310341) translate(59.92838541666667 12.916666666666668)"/><use xlink:href="#j" transform="matrix(1,0,0,1,-237.88194444444443,-1149.7363004310341) translate(107.63671875 12.916666666666668)"/><use xlink:href="#k" transform="matrix(1,0,0,1,-237.88194444444443,-1149.7363004310341) translate(120.20833333333333 12.916666666666668)"/><use xlink:href="#l" transform="matrix(1,0,0,1,-237.88194444444443,-1149.7363004310341) translate(145.98307291666666 12.916666666666668)"/><path d="M16.95-1078.46H119.1v38.68H27.34M16.96-1078.46h-.5" stroke="#635dff" fill="none"/><path d="M36.2-1029.78l-17.32-10 17.32-10m-17.32 10h8.5" stroke="#635dff" fill="none"/><use xlink:href="#m" transform="matrix(1,0,0,1,127.10807291666669,-1067.9014218075245) translate(0 12.916666666666668)"/><use xlink:href="#i" transform="matrix(1,0,0,1,127.10807291666669,-1067.9014218075245) translate(52.6953125 12.916666666666668)"/><use xlink:href="#n" transform="matrix(1,0,0,1,127.10807291666669,-1067.9014218075245) translate(100.40364583333334 12.916666666666668)"/><use xlink:href="#o" transform="matrix(1,0,0,1,127.10807291666669,-1067.9014218075245) translate(172.83203125000003 12.916666666666668)"/><use xlink:href="#p" transform="matrix(1,0,0,1,127.10807291666669,-1067.9014218075245) translate(189.30338541666669 12.916666666666668)"/><path d="M20.1-979.85h209.33" stroke="#635dff" fill="none"/><path d="M20.12-979.37h-.5v-.95h.5z" stroke="#635dff" stroke-width=".05" fill="#635dff"/><path d="M220.56-989.85l17.32 10-17.32 10m17.32-10h-8.5" stroke="#635dff" fill="none"/><use xlink:href="#q" transform="matrix(1,0,0,1,44.3598090277778,-999.9776556034482) translate(0 12.916666666666668)"/><use xlink:href="#r" transform="matrix(1,0,0,1,44.3598090277778,-999.9776556034482) translate(30.31901041666667 12.916666666666668)"/><path d="M280.38-919.95h229.68" stroke="#635dff" fill="none"/><path d="M280.4-919.47h-.52v-.95h.5z" stroke="#635dff" stroke-width=".05" fill="#635dff"/><path d="M501.18-929.95l17.32 10-17.32 10m17.32-10H510" stroke="#635dff" fill="none"/><use xlink:href="#s" transform="matrix(1,0,0,1,350.83441840277777,-940.0810935344826) translate(0 12.916666666666668)"/><use xlink:href="#t" transform="matrix(1,0,0,1,350.83441840277777,-940.0810935344826) translate(38.600260416666664 12.916666666666668)"/><use xlink:href="#u" transform="matrix(1,0,0,1,350.83441840277777,-940.0810935344826) translate(53.990885416666664 12.916666666666668)"/><path d="M519-860.05h-1.98m-3.96 0h-3.96m-3.96 0h-3.96m-3.96 0h-3.96m-3.96 0h-3.96m-3.96 0h-3.96m-3.96 0h-3.96m-3.96 0h-3.96m-3.96 0h-3.96m-3.96 0h-3.96m-3.96 0h-3.96m-3.96 0h-3.96m-3.96 0h-3.96m-3.96 0h-3.96m-3.96 0h-3.96m-3.96 0h-3.96m-3.96 0h-3.96m-3.96 0h-3.96m-3.96 0h-3.96m-3.96 0h-3.96m-3.96 0h-3.96m-3.96 0h-3.96m-3.96 0h-3.96m-3.96 0h-3.96m-3.96 0h-3.96m-3.96 0h-3.96m-3.96 0h-3.96m-3.96 0h-3.96m-3.96 0h-3.96m-3.96 0h-1.98" stroke="#635dff" fill="none"/><path d="M519.5-859.58h-.5v-.95h.5z" stroke="#635dff" stroke-width=".05" fill="#635dff"/><path d="M298.2-850.05l-17.32-10 17.32-10m-17.32 10h8.5" stroke="#635dff" fill="none"/><use xlink:href="#v" transform="matrix(1,0,0,1,326.0980902777778,-880.1845314655172) translate(0 12.916666666666668)"/><use xlink:href="#w" transform="matrix(1,0,0,1,326.0980902777778,-880.1845314655172) translate(39.01041666666667 12.916666666666668)"/><use xlink:href="#j" transform="matrix(1,0,0,1,326.0980902777778,-880.1845314655172) translate(69.19921875 12.916666666666668)"/><use xlink:href="#x" transform="matrix(1,0,0,1,326.0980902777778,-880.1845314655172) translate(81.77083333333333 12.916666666666668)"/><use xlink:href="#y" transform="matrix(1,0,0,1,326.0980902777778,-880.1845314655172) translate(119.61588541666666 12.916666666666668)"/><path d="M258.88-800.15h-1.98m-3.97 0h-3.96m-3.96 0h-3.95m-3.97 0h-3.96m-3.96 0h-3.96m-3.97 0h-3.96m-3.96 0h-3.95m-3.97 0h-3.96m-3.96 0h-3.96m-3.97 0h-3.96m-3.96 0h-3.95m-3.97 0h-3.96m-3.96 0h-3.96m-3.97 0h-3.96m-3.96 0h-3.95m-3.97 0h-3.96m-3.96 0h-3.96m-3.97 0h-3.96m-3.96 0h-3.95m-3.97 0h-3.96m-3.96 0H98.4m-3.97 0h-3.96m-3.96 0h-3.95m-3.97 0h-3.96m-3.96 0H66.7m-3.97 0h-3.96m-3.96 0h-3.95m-3.97 0h-3.96m-3.96 0H35m-3.97 0h-1.98M258.86-800.15h.52M37.93-790.15l-17.32-10 17.33-10m-17.32 10h8.5" stroke="#635dff" fill="none"/><g><use xlink:href="#z" transform="matrix(1,0,0,1,80.38129340277781,-852.5535943965518) translate(9.119583333333324 12.916666666666668)"/><use xlink:href="#A" transform="matrix(1,0,0,1,80.38129340277781,-852.5535943965518) translate(81.54796875 12.916666666666668)"/><use xlink:href="#B" transform="matrix(1,0,0,1,80.38129340277781,-852.5535943965518) translate(54.70552083333333 29.049479166666668)"/><use xlink:href="#C" transform="matrix(1,0,0,1,80.38129340277781,-852.5535943965518) translate(0.005000000000002558 45.18229166666667)"/><use xlink:href="#D" transform="matrix(1,0,0,1,80.38129340277781,-852.5535943965518) translate(68.07791666666665 45.18229166666667)"/></g><path d="M20.1-759.5h99v40.08H29.06" stroke="#635dff" fill="none"/><path d="M20.12-759.02h-.5v-.96h.5z" stroke="#635dff" stroke-width=".05" fill="#635dff"/><path d="M37.93-709.42l-17.32-10 17.33-10m-17.32 10h8.5" stroke="#635dff" fill="none"/><g><use xlink:href="#E" transform="matrix(1,0,0,1,127.10807291666669,-747.5283044656311) translate(0 12.916666666666668)"/><use xlink:href="#F" transform="matrix(1,0,0,1,127.10807291666669,-747.5283044656311) translate(95.31901041666667 12.916666666666668)"/><use xlink:href="#G" transform="matrix(1,0,0,1,127.10807291666669,-747.5283044656311) translate(178.01432291666669 12.916666666666668)"/></g><path d="M20.1-680h99v38.5H29.06M20.12-680h-.5" stroke="#635dff" fill="none"/><path d="M37.93-631.5l-17.32-10 17.33-10m-17.32 10h8.5" stroke="#635dff" fill="none"/><g><use xlink:href="#H" transform="matrix(1,0,0,1,127.10807291666669,-668.81640625) translate(0 12.916666666666668)"/><use xlink:href="#I" transform="matrix(1,0,0,1,127.10807291666669,-668.81640625) translate(49.817708333333336 12.916666666666668)"/><use xlink:href="#J" transform="matrix(1,0,0,1,127.10807291666669,-668.81640625) translate(92.68229166666667 12.916666666666668)"/></g><path d="M-20.9-1120h40v480h-40zM239.38-980h40v180h-40zM520-920h40v60h-40z" stroke="#635dff" fill="#dedeff"/><defs><path fill="#333" d="M784 20c-382 0-662-292-662-764 0-473 280-766 662-766s660 293 660 766c0 282-99 499-260 629l192 255h-198L1049-33C969 2 880 20 784 20zm-62-486h198l156 205c112-98 183-261 183-483 0-383-209-590-475-590-268 0-477 208-477 590 0 380 209 588 477 588 54 0 106-9 154-25" id="K"/><path fill="#333" d="M180 0v-1490h510c348 0 508 194 508 460 0 198-88 351-276 417L1256 0h-220L726-579c-117 2-238 0-356 1V0H180zm190-747h312c235 0 327-108 327-283 0-177-92-293-329-293H370v576" id="L"/><g id="a"><use transform="matrix(0.010850694444444444,0,0,0.010850694444444444,0,0)" xlink:href="#K"/><use transform="matrix(0.010850694444444444,0,0,0.010850694444444444,16.9921875,0)" xlink:href="#L"/></g><path fill="#333" d="M783 20c-382 0-661-292-661-764 0-473 279-766 661-766 302 0 548 182 601 489h-190c-42-204-217-313-411-313-268 0-476 208-476 590 0 381 209 588 476 588 195 0 369-110 411-313h190c-52 303-296 489-601 489" id="M"/><path fill="#333" d="M613 24c-304 0-509-231-509-576 0-350 205-580 509-580 305 0 511 230 511 580 0 345-206 576-511 576zm0-161c226 0 329-195 329-415 0-222-103-419-329-419-223 0-326 196-326 419 0 220 103 415 326 415" id="N"/><path fill="#333" d="M577 24c-279 0-473-224-473-580 0-354 195-576 474-576 218 0 287 134 324 193h14v-551h180V0H922v-173h-20C865-111 790 24 577 24zm27-161c203 0 314-172 314-421 0-247-108-413-314-413-212 0-317 181-317 413 0 235 108 421 317 421" id="O"/><path fill="#333" d="M628 24c-324 0-524-230-524-574 0-343 198-582 503-582 237 0 487 146 487 559v75H286c9 234 145 362 343 362 132 0 231-58 273-172l174 48C1024-91 857 24 628 24zM287-650h624c-17-190-120-322-304-322-192 0-309 151-320 322" id="P"/><g id="b"><use transform="matrix(0.010850694444444444,0,0,0.010850694444444444,0,0)" xlink:href="#M"/><use transform="matrix(0.010850694444444444,0,0,0.010850694444444444,16.23263888888889,0)" xlink:href="#N"/><use transform="matrix(0.010850694444444444,0,0,0.010850694444444444,29.557291666666664,0)" xlink:href="#O"/><use transform="matrix(0.010850694444444444,0,0,0.010850694444444444,43.1640625,0)" xlink:href="#P"/></g><path fill="#333" d="M180 0v-1490h528c311 0 458 177 458 395 0 191-114 278-244 313v14c139 9 302 137 302 371 0 225-148 397-499 397H180zm190-168h350c232 0 321-102 321-231 0-149-120-277-311-277H370v508zm0-668h328c160 0 286-101 286-255 0-129-87-231-280-231H370v486" id="Q"/><path fill="#333" d="M158 0v-1118h174v172h12c41-113 157-188 290-188 26 0 70 2 91 3v181c-11-2-60-10-108-10-161 0-279 109-279 260V0H158" id="R"/><path fill="#333" d="M409 0L70-1118h191c89 329 165 560 243 925 75-353 154-601 240-925h192c85 325 161 564 235 922 77-354 157-598 244-922h191L1267 0h-179c-86-307-176-590-250-913C763-588 675-308 588 0H409" id="S"/><path fill="#333" d="M538 24C308 24 148-78 108-271l171-41c32 123 123 178 257 178 156 0 256-77 256-169 0-77-54-128-164-154l-186-44c-203-48-300-148-300-305 0-192 176-326 414-326 230 0 351 112 402 269l-163 42c-31-80-94-158-238-158-133 0-233 69-233 162 0 83 57 129 188 160l169 40c203 48 298 149 298 302 0 196-179 339-441 339" id="T"/><g id="c"><use transform="matrix(0.010850694444444444,0,0,0.010850694444444444,0,0)" xlink:href="#Q"/><use transform="matrix(0.010850694444444444,0,0,0.010850694444444444,14.539930555555555,0)" xlink:href="#R"/><use transform="matrix(0.010850694444444444,0,0,0.010850694444444444,22.53689236111111,0)" xlink:href="#N"/><use transform="matrix(0.010850694444444444,0,0,0.010850694444444444,35.46006944444444,0)" xlink:href="#S"/><use transform="matrix(0.010850694444444444,0,0,0.010850694444444444,53.64583333333333,0)" xlink:href="#T"/><use transform="matrix(0.010850694444444444,0,0,0.010850694444444444,65.37543402777777,0)" xlink:href="#P"/><use transform="matrix(0.010850694444444444,0,0,0.010850694444444444,78.33116319444444,0)" xlink:href="#R"/></g><path fill="#333" d="M52 0l541-1490h220L1361 0h-200l-149-416H398L254 0H52zm404-582h497c-103-290-145-390-251-756-108 377-145 460-246 756" id="U"/><path fill="#333" d="M180 0v-1490h510c348 0 508 209 508 474 0 266-160 477-507 477H370V0H180zm190-706h312c236 0 327-133 327-310 0-176-91-307-329-307H370v617" id="V"/><path fill="#333" d="M370-1490V0H180v-1490h190" id="W"/><g id="d"><use transform="matrix(0.010850694444444444,0,0,0.010850694444444444,0,0)" xlink:href="#U"/><use transform="matrix(0.010850694444444444,0,0,0.010850694444444444,15.33203125,0)" xlink:href="#V"/><use transform="matrix(0.010850694444444444,0,0,0.010850694444444444,29.524739583333332,0)" xlink:href="#W"/></g><path fill="#333" d="M657 26c-323 0-524-166-541-416h195c15 169 171 246 346 246 202 0 356-106 356-265 5-203-294-238-475-293-239-73-380-191-380-389 0-252 224-419 512-419 294 0 499 171 508 396H992c-17-145-151-228-328-228-193 0-321 102-321 242 0 156 175 211 284 241l149 41c160 44 422 134 422 412 0 244-197 432-541 432" id="X"/><path fill="#333" d="M481 0L54-1118h197c107 314 236 620 325 951 87-331 217-637 324-951h197L670 0H481" id="Y"/><g id="e"><use transform="matrix(0.010850694444444444,0,0,0.010850694444444444,0,0)" xlink:href="#X"/><use transform="matrix(0.010850694444444444,0,0,0.010850694444444444,14.2578125,0)" xlink:href="#P"/><use transform="matrix(0.010850694444444444,0,0,0.010850694444444444,27.213541666666664,0)" xlink:href="#R"/><use transform="matrix(0.010850694444444444,0,0,0.010850694444444444,35.92664930555555,0)" xlink:href="#Y"/><use transform="matrix(0.010850694444444444,0,0,0.010850694444444444,47.98177083333333,0)" xlink:href="#P"/><use transform="matrix(0.010850694444444444,0,0,0.010850694444444444,60.937499999999986,0)" xlink:href="#R"/></g><path fill="#333" d="M338-1490V0H158v-1490h180" id="Z"/><path fill="#333" d="M613 24c-304 0-509-231-509-576 0-350 205-580 509-580 216 0 392 114 453 309l-173 49c-33-115-133-197-280-197-223 0-326 196-326 419 0 220 103 415 326 415 150 0 252-85 285-206l172 49C1010-95 832 24 613 24" id="aa"/><path fill="#333" d="M158 0v-1490h180v865h22l478-493h223L593-638 1096 0H865L456-523 338-412V0H158" id="ab"/><path fill="#333" d="M338-670V0H158v-1490h180v566c73-149 190-208 336-208 226 0 379 139 379 422V0H872v-695c0-172-96-275-252-275-161 0-282 109-282 300" id="ac"/><path fill="#333" d="M471 26C259 26 90-98 90-318c0-256 228-303 435-329 202-27 287-16 287-108 0-139-79-219-234-219-161 0-248 86-283 164l-173-57c86-203 278-265 451-265 150 0 419 46 419 395V0H815v-152h-12C765-73 660 26 471 26zm31-159c199 0 310-134 310-271v-155c-30 35-226 55-295 64-131 17-246 59-246 186 0 116 97 176 231 176" id="ad"/><path fill="#333" d="M158 0v-1118h180V0H158zm91-1301c-68 0-125-53-125-119s57-119 125-119c69 0 126 53 126 119s-57 119-126 119" id="ae"/><path fill="#333" d="M338-670V0H158v-1118h173l1 207c72-158 192-221 342-221 226 0 378 139 378 422V0H872v-695c0-172-96-275-252-275-161 0-282 109-282 300" id="af"/><g id="f"><use transform="matrix(0.010850694444444444,0,0,0.010850694444444444,0,0)" xlink:href="#Q"/><use transform="matrix(0.010850694444444444,0,0,0.010850694444444444,14.539930555555555,0)" xlink:href="#Z"/><use transform="matrix(0.010850694444444444,0,0,0.010850694444444444,19.921875,0)" xlink:href="#N"/><use transform="matrix(0.010850694444444444,0,0,0.010850694444444444,33.24652777777778,0)" xlink:href="#aa"/><use transform="matrix(0.010850694444444444,0,0,0.010850694444444444,45.94184027777778,0)" xlink:href="#ab"/><use transform="matrix(0.010850694444444444,0,0,0.010850694444444444,57.6388888888889,0)" xlink:href="#aa"/><use transform="matrix(0.010850694444444444,0,0,0.010850694444444444,70.33420138888889,0)" xlink:href="#ac"/><use transform="matrix(0.010850694444444444,0,0,0.010850694444444444,83.47439236111111,0)" xlink:href="#ad"/><use transform="matrix(0.010850694444444444,0,0,0.010850694444444444,95.95269097222221,0)" xlink:href="#ae"/><use transform="matrix(0.010850694444444444,0,0,0.010850694444444444,101.33463541666666,0)" xlink:href="#af"/></g><path fill="#333" d="M763 24c-353 0-583-224-583-531v-983h190v968c0 214 149 370 393 370 243 0 391-156 391-370v-968h190v983c0 307-230 531-581 531" id="ag"/><path fill="#333" d="M180 0v-1490h190v1322h690V0H180" id="ah"/><g id="g"><use transform="matrix(0.006510416666666667,0,0,0.006510416666666667,0,0)" xlink:href="#ag"/><use transform="matrix(0.006510416666666667,0,0,0.006510416666666667,9.921875,0)" xlink:href="#L"/><use transform="matrix(0.006510416666666667,0,0,0.006510416666666667,18.502604166666668,0)" xlink:href="#ah"/></g><path fill="#333" d="M598-1118v154H368v674c0 100 37 144 132 144 23 0 62-6 92-12L629-6c-37 13-88 20-134 20-193 0-307-107-307-290v-688H20v-154h168v-266h180v266h230" id="ai"/><g id="h"><use transform="matrix(0.006510416666666667,0,0,0.006510416666666667,0,0)" xlink:href="#S"/><use transform="matrix(0.006510416666666667,0,0,0.006510416666666667,10.911458333333334,0)" xlink:href="#ae"/><use transform="matrix(0.006510416666666667,0,0,0.006510416666666667,14.140625,0)" xlink:href="#ai"/><use transform="matrix(0.006510416666666667,0,0,0.006510416666666667,18.502604166666668,0)" xlink:href="#ac"/></g><path fill="#333" d="M65 0l393-574-370-544h210c88 136 192 297 267 435 67-142 176-302 264-435h206L661-564 1053 0H844c-94-144-206-310-287-458C484-308 366-142 273 0H65" id="aj"/><path fill="#333" d="M180 0v-1490h190v644h782v-644h190V0h-190v-678H370V0H180" id="ak"/><g id="i"><use transform="matrix(0.006510416666666667,0,0,0.006510416666666667,0,0)" xlink:href="#ai"/><use transform="matrix(0.006510416666666667,0,0,0.006510416666666667,4.361979166666667,0)" xlink:href="#aj"/><use transform="matrix(0.006510416666666667,0,0,0.006510416666666667,11.640625,0)" xlink:href="#ak"/><use transform="matrix(0.006510416666666667,0,0,0.006510416666666667,21.549479166666668,0)" xlink:href="#ad"/><use transform="matrix(0.006510416666666667,0,0,0.006510416666666667,29.036458333333336,0)" xlink:href="#T"/><use transform="matrix(0.006510416666666667,0,0,0.006510416666666667,36.07421875,0)" xlink:href="#ac"/></g><path fill="#333" d="M593-100v-404H195v-159h398v-403h169v403h398v159H762v404H593" id="al"/><use transform="matrix(0.006510416666666667,0,0,0.006510416666666667,0,0)" xlink:href="#al" id="j"/><path fill="#333" d="M140 405l46-156c120 36 205 19 263-150l32-93L54-1118h197c107 313 237 620 324 950 87-331 219-637 326-950h196L606 167c-68 178-176 259-334 259-64 0-113-12-132-21" id="am"/><g id="k"><use transform="matrix(0.006510416666666667,0,0,0.006510416666666667,0,0)" xlink:href="#ab"/><use transform="matrix(0.006510416666666667,0,0,0.006510416666666667,7.018229166666667,0)" xlink:href="#P"/><use transform="matrix(0.006510416666666667,0,0,0.006510416666666667,14.53125,0)" xlink:href="#am"/></g><path fill="#333" d="M678-1118v154H420V0H240v-964H20v-154h220v-149c0-194 155-293 318-293 85 0 141 18 168 30l-50 154c-19-6-47-17-97-17-111 0-159 58-159 166v109h258" id="an"/><path fill="#333" d="M611 442c-248 0-391-105-460-228l146-94c47 65 117 165 314 165 178 0 307-82 307-266v-224h-17C863-141 792-18 576-18c-268 0-472-195-472-546 0-346 197-568 476-568 216 0 288 133 326 193h17v-179h175V29c0 289-215 413-487 413zm-5-620c203 0 314-146 314-390 0-237-108-403-314-403-213 0-319 180-319 403 0 230 109 390 319 390" id="ao"/><path fill="#333" d="M158 0v-1118h175l1 205c55-151 181-225 313-225 147 0 245 90 285 228 53-141 190-228 352-228 194 0 352 125 352 384V0h-181v-749c0-161-105-225-225-225-151 0-243 103-243 244V0H807v-767c0-124-93-207-219-207-131 0-250 92-250 270V0H158" id="ap"/><g id="l"><use transform="matrix(0.006510416666666667,0,0,0.006510416666666667,0,0)" xlink:href="#an"/><use transform="matrix(0.006510416666666667,0,0,0.006510416666666667,4.934895833333334,0)" xlink:href="#R"/><use transform="matrix(0.006510416666666667,0,0,0.006510416666666667,9.954427083333334,0)" xlink:href="#ad"/><use transform="matrix(0.006510416666666667,0,0,0.006510416666666667,17.44140625,0)" xlink:href="#ao"/><use transform="matrix(0.006510416666666667,0,0,0.006510416666666667,25.618489583333336,0)" xlink:href="#ap"/><use transform="matrix(0.006510416666666667,0,0,0.006510416666666667,37.298177083333336,0)" xlink:href="#P"/><use transform="matrix(0.006510416666666667,0,0,0.006510416666666667,45.071614583333336,0)" xlink:href="#af"/><use transform="matrix(0.006510416666666667,0,0,0.006510416666666667,52.94921875,0)" xlink:href="#ai"/></g><path fill="#333" d="M645 0H180v-1490h484c435 0 692 280 692 742 0 466-257 748-711 748zM370-168h263c363 0 539-218 539-580 0-358-176-574-521-574H370v1154" id="aq"/><g id="m"><use transform="matrix(0.006510416666666667,0,0,0.006510416666666667,0,0)" xlink:href="#aq"/><use transform="matrix(0.006510416666666667,0,0,0.006510416666666667,9.622395833333334,0)" xlink:href="#P"/><use transform="matrix(0.006510416666666667,0,0,0.006510416666666667,17.395833333333336,0)" xlink:href="#aa"/><use transform="matrix(0.006510416666666667,0,0,0.006510416666666667,25.013020833333336,0)" xlink:href="#N"/><use transform="matrix(0.006510416666666667,0,0,0.006510416666666667,33.0078125,0)" xlink:href="#O"/><use transform="matrix(0.006510416666666667,0,0,0.006510416666666667,41.171875,0)" xlink:href="#P"/></g><path fill="#333" d="M218-607c0-325 108-727 258-974h175c-155 315-250 682-250 974 0 265 78 531 250 886H476C306-10 218-315 218-607" id="ar"/><path fill="#333" d="M677 24c-213 0-288-135-325-197h-20V0H158v-1490h180v551h14c37-59 106-193 324-193 279 0 474 222 474 576 0 356-194 580-473 580zm-27-161c209 0 317-186 317-421 0-232-105-413-317-413-206 0-314 166-314 413 0 249 111 421 314 421" id="as"/><path fill="#333" d="M646 20c-249 0-524-159-524-708 0-524 209-822 547-822 250 0 431 161 467 395H950c-33-129-126-227-281-227-229 0-367 208-367 566h12c80-124 212-198 367-198 255 0 467 205 467 493 0 278-198 501-502 501zm0-167c179 0 318-148 318-334 0-182-133-328-313-328-181 0-322 156-322 330 0 176 134 332 317 332" id="at"/><path fill="#333" d="M120-303v-155l652-1032h231v1020h202v167h-202V0H821v-303H120zm702-167v-782h-12L323-482v12h499" id="au"/><path fill="#333" d="M537 14c-226 0-379-139-379-422v-710h180v695c0 172 97 275 253 275 160 0 281-109 281-300v-670h181V0H879v-209C806-46 684 14 537 14" id="av"/><g id="n"><use transform="matrix(0.006510416666666667,0,0,0.006510416666666667,0,0)" xlink:href="#ar"/><use transform="matrix(0.006510416666666667,0,0,0.006510416666666667,4.86328125,0)" xlink:href="#as"/><use transform="matrix(0.006510416666666667,0,0,0.006510416666666667,13.157552083333332,0)" xlink:href="#ad"/><use transform="matrix(0.006510416666666667,0,0,0.006510416666666667,20.64453125,0)" xlink:href="#T"/><use transform="matrix(0.006510416666666667,0,0,0.006510416666666667,27.682291666666668,0)" xlink:href="#P"/><use transform="matrix(0.006510416666666667,0,0,0.006510416666666667,35.45572916666667,0)" xlink:href="#at"/><use transform="matrix(0.006510416666666667,0,0,0.006510416666666667,43.72395833333334,0)" xlink:href="#au"/><use transform="matrix(0.006510416666666667,0,0,0.006510416666666667,52.33723958333334,0)" xlink:href="#av"/><use transform="matrix(0.006510416666666667,0,0,0.006510416666666667,60.22135416666668,0)" xlink:href="#R"/><use transform="matrix(0.006510416666666667,0,0,0.006510416666666667,65.44921875000001,0)" xlink:href="#Z"/></g><path fill="#333" d="M1100 0L984-116c165-167 335-338 528-481-76 15-153 28-230 28H256v-166h1026c77 0 154 13 230 28-192-142-364-314-528-481l116-116 652 652" id="aw"/><use transform="matrix(0.006510416666666667,0,0,0.006510416666666667,0,0)" xlink:href="#aw" id="o"/><path fill="#333" d="M96 279C273-86 346-350 346-607c0-292-95-659-250-974h175c150 246 258 650 258 974 0 297-91 602-258 886H96" id="ax"/><g id="p"><use transform="matrix(0.006510416666666667,0,0,0.006510416666666667,0,0)" xlink:href="#ac"/><use transform="matrix(0.006510416666666667,0,0,0.006510416666666667,7.884114583333334,0)" xlink:href="#P"/><use transform="matrix(0.006510416666666667,0,0,0.006510416666666667,15.358072916666668,0)" xlink:href="#aj"/><use transform="matrix(0.006510416666666667,0,0,0.006510416666666667,22.63671875,0)" xlink:href="#ax"/></g><path fill="#333" d="M789 20c-398 0-667-293-667-764 0-473 273-766 655-766 315 0 558 198 612 487h-196c-61-191-204-311-415-311-262 0-471 207-471 590 0 380 208 588 482 588 249 0 420-165 425-427H828v-166h572v163c0 370-256 606-611 606" id="ay"/><path fill="#333" d="M180 0v-1490h908v168H370v486h669v168H370v500h727V0H180" id="az"/><path fill="#333" d="M98-1322v-168h1126v168H757V0H567v-1322H98" id="aA"/><g id="q"><use transform="matrix(0.006510416666666667,0,0,0.006510416666666667,0,0)" xlink:href="#ay"/><use transform="matrix(0.006510416666666667,0,0,0.006510416666666667,9.947916666666668,0)" xlink:href="#az"/><use transform="matrix(0.006510416666666667,0,0,0.006510416666666667,17.962239583333336,0)" xlink:href="#aA"/></g><path fill="#333" d="M692-1560L212 224H46l480-1784h166" id="aB"/><path fill="#333" d="M158 418v-1536h174v179h20c37-59 106-193 324-193 279 0 474 222 474 576 0 356-194 580-473 580-213 0-288-135-325-197h-14v591H158zm492-555c209 0 317-186 317-421 0-232-105-413-317-413-206 0-314 166-314 413 0 249 111 421 314 421" id="aC"/><path fill="#333" d="M646 20c-332 0-524-278-524-764 0-483 194-766 524-766s524 283 524 766c0 485-191 764-524 764zm0-166c218 0 341-220 341-598 0-380-123-601-341-601s-341 222-341 601c0 378 123 598 341 598" id="aD"/><path fill="#333" d="M750 279c-286 0-388-117-388-391v-228c1-158-59-222-218-220v-182c158 3 218-60 218-218v-230c0-273 102-391 388-391v151c-169-1-222 74-222 243v286c0 117-37 206-205 240v20c168 35 205 125 205 242v284c0 169 52 245 222 245v149" id="aE"/><path fill="#333" d="M123 279V130c170 0 222-76 222-245v-284c0-116 37-207 204-242v-20c-167-34-204-123-204-240v-286c0-168-52-243-222-243v-151c285 0 387 118 387 391v230c-1 158 57 219 219 219v180c-164 1-219 64-219 221v228c0 274-102 391-387 391" id="aF"/><g id="r"><use transform="matrix(0.006510416666666667,0,0,0.006510416666666667,0,0)" xlink:href="#aB"/><use transform="matrix(0.006510416666666667,0,0,0.006510416666666667,4.8046875,0)" xlink:href="#ad"/><use transform="matrix(0.006510416666666667,0,0,0.006510416666666667,12.291666666666668,0)" xlink:href="#aC"/><use transform="matrix(0.006510416666666667,0,0,0.006510416666666667,20.455729166666668,0)" xlink:href="#ae"/><use transform="matrix(0.006510416666666667,0,0,0.006510416666666667,23.684895833333336,0)" xlink:href="#aB"/><use transform="matrix(0.006510416666666667,0,0,0.006510416666666667,28.489583333333336,0)" xlink:href="#Y"/><use transform="matrix(0.006510416666666667,0,0,0.006510416666666667,35.72265625,0)" xlink:href="#P"/><use transform="matrix(0.006510416666666667,0,0,0.006510416666666667,43.49609375,0)" xlink:href="#R"/><use transform="matrix(0.006510416666666667,0,0,0.006510416666666667,48.723958333333336,0)" xlink:href="#ae"/><use transform="matrix(0.006510416666666667,0,0,0.006510416666666667,51.953125,0)" xlink:href="#an"/><use transform="matrix(0.006510416666666667,0,0,0.006510416666666667,56.888020833333336,0)" xlink:href="#am"/><use transform="matrix(0.006510416666666667,0,0,0.006510416666666667,63.626302083333336,0)" xlink:href="#aB"/><use transform="matrix(0.006510416666666667,0,0,0.006510416666666667,68.43098958333334,0)" xlink:href="#aD"/><use transform="matrix(0.006510416666666667,0,0,0.006510416666666667,76.84244791666667,0)" xlink:href="#aj"/><use transform="matrix(0.006510416666666667,0,0,0.006510416666666667,84.12109375,0)" xlink:href="#aE"/><use transform="matrix(0.006510416666666667,0,0,0.006510416666666667,89.8046875,0)" xlink:href="#ai"/><use transform="matrix(0.006510416666666667,0,0,0.006510416666666667,94.16666666666667,0)" xlink:href="#aj"/><use transform="matrix(0.006510416666666667,0,0,0.006510416666666667,101.4453125,0)" xlink:href="#ak"/><use transform="matrix(0.006510416666666667,0,0,0.006510416666666667,111.35416666666667,0)" xlink:href="#ad"/><use transform="matrix(0.006510416666666667,0,0,0.006510416666666667,118.84114583333334,0)" xlink:href="#T"/><use transform="matrix(0.006510416666666667,0,0,0.006510416666666667,125.87890625,0)" xlink:href="#ac"/><use transform="matrix(0.006510416666666667,0,0,0.006510416666666667,133.76302083333334,0)" xlink:href="#aF"/></g><path fill="#333" d="M180 0v-1490h901v168H370v510h643v168H370V0H180" id="aG"/><g id="s"><use transform="matrix(0.006510416666666667,0,0,0.006510416666666667,0,0)" xlink:href="#aG"/><use transform="matrix(0.006510416666666667,0,0,0.006510416666666667,7.34375,0)" xlink:href="#P"/><use transform="matrix(0.006510416666666667,0,0,0.006510416666666667,15.1171875,0)" xlink:href="#ai"/><use transform="matrix(0.006510416666666667,0,0,0.006510416666666667,19.348958333333332,0)" xlink:href="#aa"/><use transform="matrix(0.006510416666666667,0,0,0.006510416666666667,26.966145833333336,0)" xlink:href="#ac"/></g><g id="t"><use transform="matrix(0.006510416666666667,0,0,0.006510416666666667,0,0)" xlink:href="#ai"/><use transform="matrix(0.006510416666666667,0,0,0.006510416666666667,4.361979166666667,0)" xlink:href="#aj"/></g><g id="u"><use transform="matrix(0.006510416666666667,0,0,0.006510416666666667,0,0)" xlink:href="#R"/><use transform="matrix(0.006510416666666667,0,0,0.006510416666666667,4.798177083333333,0)" xlink:href="#P"/><use transform="matrix(0.006510416666666667,0,0,0.006510416666666667,12.571614583333332,0)" xlink:href="#aa"/><use transform="matrix(0.006510416666666667,0,0,0.006510416666666667,20.188802083333332,0)" xlink:href="#P"/><use transform="matrix(0.006510416666666667,0,0,0.006510416666666667,27.962239583333336,0)" xlink:href="#ae"/><use transform="matrix(0.006510416666666667,0,0,0.006510416666666667,31.19140625,0)" xlink:href="#aC"/><use transform="matrix(0.006510416666666667,0,0,0.006510416666666667,39.35546875,0)" xlink:href="#ai"/></g><g id="v"><use transform="matrix(0.006510416666666667,0,0,0.006510416666666667,0,0)" xlink:href="#az"/><use transform="matrix(0.006510416666666667,0,0,0.006510416666666667,8.014322916666668,0)" xlink:href="#Y"/><use transform="matrix(0.006510416666666667,0,0,0.006510416666666667,15.247395833333337,0)" xlink:href="#P"/><use transform="matrix(0.006510416666666667,0,0,0.006510416666666667,23.020833333333336,0)" xlink:href="#af"/><use transform="matrix(0.006510416666666667,0,0,0.006510416666666667,30.8984375,0)" xlink:href="#ai"/></g><g id="w"><use transform="matrix(0.006510416666666667,0,0,0.006510416666666667,0,0)" xlink:href="#Z"/><use transform="matrix(0.006510416666666667,0,0,0.006510416666666667,3.229166666666667,0)" xlink:href="#N"/><use transform="matrix(0.006510416666666667,0,0,0.006510416666666667,11.223958333333334,0)" xlink:href="#ao"/><use transform="matrix(0.006510416666666667,0,0,0.006510416666666667,19.401041666666668,0)" xlink:href="#T"/></g><g id="x"><use transform="matrix(0.006510416666666667,0,0,0.006510416666666667,0,0)" xlink:href="#aa"/><use transform="matrix(0.006510416666666667,0,0,0.006510416666666667,7.6171875,0)" xlink:href="#ac"/><use transform="matrix(0.006510416666666667,0,0,0.006510416666666667,15.501302083333334,0)" xlink:href="#ad"/><use transform="matrix(0.006510416666666667,0,0,0.006510416666666667,22.98828125,0)" xlink:href="#ae"/><use transform="matrix(0.006510416666666667,0,0,0.006510416666666667,26.217447916666668,0)" xlink:href="#af"/></g><g id="y"><use transform="matrix(0.006510416666666667,0,0,0.006510416666666667,0,0)" xlink:href="#O"/><use transform="matrix(0.006510416666666667,0,0,0.006510416666666667,8.1640625,0)" xlink:href="#ad"/><use transform="matrix(0.006510416666666667,0,0,0.006510416666666667,15.651041666666668,0)" xlink:href="#ai"/><use transform="matrix(0.006510416666666667,0,0,0.006510416666666667,20.078125,0)" xlink:href="#ad"/></g><g id="z"><use transform="matrix(0.006510416666666667,0,0,0.006510416666666667,0,0)" xlink:href="#Q"/><use transform="matrix(0.006510416666666667,0,0,0.006510416666666667,8.723958333333334,0)" xlink:href="#Z"/><use transform="matrix(0.006510416666666667,0,0,0.006510416666666667,11.953125,0)" xlink:href="#N"/><use transform="matrix(0.006510416666666667,0,0,0.006510416666666667,19.947916666666668,0)" xlink:href="#aa"/><use transform="matrix(0.006510416666666667,0,0,0.006510416666666667,27.565104166666668,0)" xlink:href="#ab"/><use transform="matrix(0.006510416666666667,0,0,0.006510416666666667,34.583333333333336,0)" xlink:href="#aa"/><use transform="matrix(0.006510416666666667,0,0,0.006510416666666667,42.200520833333336,0)" xlink:href="#ac"/><use transform="matrix(0.006510416666666667,0,0,0.006510416666666667,50.08463541666667,0)" xlink:href="#ad"/><use transform="matrix(0.006510416666666667,0,0,0.006510416666666667,57.571614583333336,0)" xlink:href="#ae"/><use transform="matrix(0.006510416666666667,0,0,0.006510416666666667,60.80078125,0)" xlink:href="#af"/></g><g id="A"><use transform="matrix(0.006510416666666667,0,0,0.006510416666666667,0,0)" xlink:href="#O"/><use transform="matrix(0.006510416666666667,0,0,0.006510416666666667,8.1640625,0)" xlink:href="#ad"/><use transform="matrix(0.006510416666666667,0,0,0.006510416666666667,15.651041666666668,0)" xlink:href="#ai"/><use transform="matrix(0.006510416666666667,0,0,0.006510416666666667,20.078125,0)" xlink:href="#ad"/></g><use transform="matrix(0.006510416666666667,0,0,0.006510416666666667,0,0)" xlink:href="#al" id="B"/><g id="C"><use transform="matrix(0.006510416666666667,0,0,0.006510416666666667,0,0)" xlink:href="#P"/><use transform="matrix(0.006510416666666667,0,0,0.006510416666666667,7.7734375,0)" xlink:href="#af"/><use transform="matrix(0.006510416666666667,0,0,0.006510416666666667,15.651041666666668,0)" xlink:href="#aa"/><use transform="matrix(0.006510416666666667,0,0,0.006510416666666667,23.268229166666668,0)" xlink:href="#R"/><use transform="matrix(0.006510416666666667,0,0,0.006510416666666667,28.49609375,0)" xlink:href="#am"/><use transform="matrix(0.006510416666666667,0,0,0.006510416666666667,35.989583333333336,0)" xlink:href="#aC"/><use transform="matrix(0.006510416666666667,0,0,0.006510416666666667,44.153645833333336,0)" xlink:href="#ai"/><use transform="matrix(0.006510416666666667,0,0,0.006510416666666667,48.385416666666664,0)" xlink:href="#P"/><use transform="matrix(0.006510416666666667,0,0,0.006510416666666667,56.15885416666667,0)" xlink:href="#O"/></g><g id="D"><use transform="matrix(0.006510416666666667,0,0,0.006510416666666667,0,0)" xlink:href="#aC"/><use transform="matrix(0.006510416666666667,0,0,0.006510416666666667,8.294270833333334,0)" xlink:href="#ad"/><use transform="matrix(0.006510416666666667,0,0,0.006510416666666667,15.5859375,0)" xlink:href="#am"/><use transform="matrix(0.006510416666666667,0,0,0.006510416666666667,23.14453125,0)" xlink:href="#Z"/><use transform="matrix(0.006510416666666667,0,0,0.006510416666666667,26.373697916666668,0)" xlink:href="#N"/><use transform="matrix(0.006510416666666667,0,0,0.006510416666666667,34.498697916666664,0)" xlink:href="#ad"/><use transform="matrix(0.006510416666666667,0,0,0.006510416666666667,41.98567708333333,0)" xlink:href="#O"/></g><path fill="#333" d="M798-719v166H144v-166h654" id="aH"/><path fill="#333" d="M653-1490V0H466v-1314h-10L96-1047v-204l324-239h233" id="aI"/><path fill="#333" d="M154 0v-137l495-537c165-179 249-281 249-418 0-156-121-253-280-253-170 0-278 110-278 278H158c0-264 200-443 465-443 266 0 455 183 455 416 0 161-73 288-336 568L416-179v12h687V0H154" id="aJ"/><path fill="#333" d="M633 20c-303 0-511-173-511-416 0-188 124-348 291-378v-8c-145-37-237-174-237-332 0-227 192-396 457-396 261 0 456 169 456 396 0 158-94 295-235 332v8c162 30 291 190 291 378 0 243-212 416-512 416zm0-165c197 0 322-103 322-261 0-165-138-283-322-283-188 0-324 118-324 283 0 158 123 261 324 261zm0-703c157 0 272-101 272-252 0-149-110-246-272-246-165 0-273 97-273 246 0 151 112 252 273 252" id="aK"/><path fill="#333" d="M180 0v-1490h270l367 940c28 72 75 218 110 339 35-117 81-264 110-339l362-940h271V0h-187c2-448-5-837 7-1287-157 497-311 829-483 1287H842C666-458 514-784 354-1284c12 438 5 843 7 1284H180" id="aL"/><g id="E"><use transform="matrix(0.006510416666666667,0,0,0.006510416666666667,0,0)" xlink:href="#U"/><use transform="matrix(0.006510416666666667,0,0,0.006510416666666667,9.19921875,0)" xlink:href="#az"/><use transform="matrix(0.006510416666666667,0,0,0.006510416666666667,17.213541666666668,0)" xlink:href="#X"/><use transform="matrix(0.006510416666666667,0,0,0.006510416666666667,25.768229166666668,0)" xlink:href="#aH"/><use transform="matrix(0.006510416666666667,0,0,0.006510416666666667,31.901041666666668,0)" xlink:href="#aI"/><use transform="matrix(0.006510416666666667,0,0,0.006510416666666667,37.32421875,0)" xlink:href="#aJ"/><use transform="matrix(0.006510416666666667,0,0,0.006510416666666667,45.45572916666667,0)" xlink:href="#aK"/><use transform="matrix(0.006510416666666667,0,0,0.006510416666666667,53.70442708333335,0)" xlink:href="#aH"/><use transform="matrix(0.006510416666666667,0,0,0.006510416666666667,59.83723958333335,0)" xlink:href="#ay"/><use transform="matrix(0.006510416666666667,0,0,0.006510416666666667,69.78515625000001,0)" xlink:href="#M"/><use transform="matrix(0.006510416666666667,0,0,0.006510416666666667,79.52473958333334,0)" xlink:href="#aL"/></g><path fill="#333" d="M128 359l88-567h206L266 359H128" id="aM"/><g id="F"><use transform="matrix(0.006510416666666667,0,0,0.006510416666666667,0,0)" xlink:href="#O"/><use transform="matrix(0.006510416666666667,0,0,0.006510416666666667,8.1640625,0)" xlink:href="#P"/><use transform="matrix(0.006510416666666667,0,0,0.006510416666666667,15.9375,0)" xlink:href="#aa"/><use transform="matrix(0.006510416666666667,0,0,0.006510416666666667,23.5546875,0)" xlink:href="#R"/><use transform="matrix(0.006510416666666667,0,0,0.006510416666666667,28.782552083333336,0)" xlink:href="#am"/><use transform="matrix(0.006510416666666667,0,0,0.006510416666666667,36.276041666666664,0)" xlink:href="#aC"/><use transform="matrix(0.006510416666666667,0,0,0.006510416666666667,44.440104166666664,0)" xlink:href="#ai"/><use transform="matrix(0.006510416666666667,0,0,0.006510416666666667,48.80208333333333,0)" xlink:href="#ar"/><use transform="matrix(0.006510416666666667,0,0,0.006510416666666667,53.66536458333332,0)" xlink:href="#ab"/><use transform="matrix(0.006510416666666667,0,0,0.006510416666666667,60.68359375,0)" xlink:href="#P"/><use transform="matrix(0.006510416666666667,0,0,0.006510416666666667,68.19661458333334,0)" xlink:href="#am"/><use transform="matrix(0.006510416666666667,0,0,0.006510416666666667,75.10416666666667,0)" xlink:href="#aM"/></g><g id="G"><use transform="matrix(0.006510416666666667,0,0,0.006510416666666667,0,0)" xlink:href="#aC"/><use transform="matrix(0.006510416666666667,0,0,0.006510416666666667,8.294270833333334,0)" xlink:href="#ad"/><use transform="matrix(0.006510416666666667,0,0,0.006510416666666667,15.5859375,0)" xlink:href="#am"/><use transform="matrix(0.006510416666666667,0,0,0.006510416666666667,23.14453125,0)" xlink:href="#Z"/><use transform="matrix(0.006510416666666667,0,0,0.006510416666666667,26.373697916666668,0)" xlink:href="#N"/><use transform="matrix(0.006510416666666667,0,0,0.006510416666666667,34.498697916666664,0)" xlink:href="#ad"/><use transform="matrix(0.006510416666666667,0,0,0.006510416666666667,41.98567708333333,0)" xlink:href="#O"/><use transform="matrix(0.006510416666666667,0,0,0.006510416666666667,50.14973958333333,0)" xlink:href="#ax"/></g><g id="H"><use transform="matrix(0.006510416666666667,0,0,0.006510416666666667,0,0)" xlink:href="#aq"/><use transform="matrix(0.006510416666666667,0,0,0.006510416666666667,9.622395833333334,0)" xlink:href="#ae"/><use transform="matrix(0.006510416666666667,0,0,0.006510416666666667,12.8515625,0)" xlink:href="#T"/><use transform="matrix(0.006510416666666667,0,0,0.006510416666666667,19.889322916666668,0)" xlink:href="#aC"/><use transform="matrix(0.006510416666666667,0,0,0.006510416666666667,28.053385416666668,0)" xlink:href="#Z"/><use transform="matrix(0.006510416666666667,0,0,0.006510416666666667,31.282552083333336,0)" xlink:href="#ad"/><use transform="matrix(0.006510416666666667,0,0,0.006510416666666667,38.57421875,0)" xlink:href="#am"/></g><g id="I"><use transform="matrix(0.006510416666666667,0,0,0.006510416666666667,0,0)" xlink:href="#T"/><use transform="matrix(0.006510416666666667,0,0,0.006510416666666667,7.037760416666667,0)" xlink:href="#ae"/><use transform="matrix(0.006510416666666667,0,0,0.006510416666666667,10.266927083333334,0)" xlink:href="#ao"/><use transform="matrix(0.006510416666666667,0,0,0.006510416666666667,18.444010416666668,0)" xlink:href="#af"/><use transform="matrix(0.006510416666666667,0,0,0.006510416666666667,26.321614583333336,0)" xlink:href="#P"/><use transform="matrix(0.006510416666666667,0,0,0.006510416666666667,34.095052083333336,0)" xlink:href="#R"/></g><g id="J"><use transform="matrix(0.006510416666666667,0,0,0.006510416666666667,0,0)" xlink:href="#ae"/><use transform="matrix(0.006510416666666667,0,0,0.006510416666666667,3.229166666666667,0)" xlink:href="#af"/><use transform="matrix(0.006510416666666667,0,0,0.006510416666666667,11.106770833333334,0)" xlink:href="#an"/><use transform="matrix(0.006510416666666667,0,0,0.006510416666666667,15.651041666666668,0)" xlink:href="#N"/></g></defs></g></svg>